G04 #@! TF.GenerationSoftware,KiCad,Pcbnew,8.0.5*
G04 #@! TF.CreationDate,2024-09-18T00:42:37+09:00*
G04 #@! TF.ProjectId,weight_measurement,77656967-6874-45f6-9d65-61737572656d,rev?*
G04 #@! TF.SameCoordinates,Original*
G04 #@! TF.FileFunction,Copper,L2,Bot*
G04 #@! TF.FilePolarity,Positive*
%FSLAX46Y46*%
G04 Gerber Fmt 4.6, Leading zero omitted, Abs format (unit mm)*
G04 Created by KiCad (PCBNEW 8.0.5) date 2024-09-18 00:42:37*
%MOMM*%
%LPD*%
G01*
G04 APERTURE LIST*
G04 Aperture macros list*
%AMRoundRect*
0 Rectangle with rounded corners*
0 $1 Rounding radius*
0 $2 $3 $4 $5 $6 $7 $8 $9 X,Y pos of 4 corners*
0 Add a 4 corners polygon primitive as box body*
4,1,4,$2,$3,$4,$5,$6,$7,$8,$9,$2,$3,0*
0 Add four circle primitives for the rounded corners*
1,1,$1+$1,$2,$3*
1,1,$1+$1,$4,$5*
1,1,$1+$1,$6,$7*
1,1,$1+$1,$8,$9*
0 Add four rect primitives between the rounded corners*
20,1,$1+$1,$2,$3,$4,$5,0*
20,1,$1+$1,$4,$5,$6,$7,0*
20,1,$1+$1,$6,$7,$8,$9,0*
20,1,$1+$1,$8,$9,$2,$3,0*%
G04 Aperture macros list end*
G04 #@! TA.AperFunction,ComponentPad*
%ADD10O,2.000000X5.000000*%
G04 #@! TD*
G04 #@! TA.AperFunction,ComponentPad*
%ADD11O,5.000000X2.000000*%
G04 #@! TD*
G04 #@! TA.AperFunction,ComponentPad*
%ADD12RoundRect,0.250000X-0.600000X-0.725000X0.600000X-0.725000X0.600000X0.725000X-0.600000X0.725000X0*%
G04 #@! TD*
G04 #@! TA.AperFunction,ComponentPad*
%ADD13O,1.700000X1.950000*%
G04 #@! TD*
G04 #@! TA.AperFunction,ComponentPad*
%ADD14C,1.600000*%
G04 #@! TD*
G04 #@! TA.AperFunction,ComponentPad*
%ADD15C,1.524000*%
G04 #@! TD*
G04 #@! TA.AperFunction,Conductor*
%ADD16C,0.200000*%
G04 #@! TD*
G04 APERTURE END LIST*
D10*
X127950000Y-84900000D03*
X134050000Y-84900000D03*
D11*
X131000000Y-80000000D03*
D12*
X128500000Y-108000000D03*
D13*
X131000000Y-108000000D03*
X133500000Y-108000000D03*
X136000000Y-108000000D03*
X136100000Y-94000000D03*
X133600000Y-94000000D03*
X131100000Y-94000000D03*
D12*
X128600000Y-94000000D03*
D14*
X91000000Y-79500000D03*
X91000000Y-77000000D03*
D12*
X110500000Y-94000000D03*
D13*
X113000000Y-94000000D03*
X115500000Y-94000000D03*
X118000000Y-94000000D03*
D14*
X99000000Y-79500000D03*
X99000000Y-77000000D03*
X119000000Y-78000000D03*
X121500000Y-78000000D03*
D12*
X110500000Y-108000000D03*
D13*
X113000000Y-108000000D03*
X115500000Y-108000000D03*
X118000000Y-108000000D03*
D15*
X85260000Y-86340000D03*
X85260000Y-88880000D03*
X85260000Y-91420000D03*
X85260000Y-93960000D03*
X85260000Y-96500000D03*
X85260000Y-99040000D03*
X100500000Y-106660000D03*
X100500000Y-104120000D03*
X100500000Y-101580000D03*
X100500000Y-99040000D03*
X100500000Y-96500000D03*
X100500000Y-93960000D03*
X100500000Y-91420000D03*
X100500000Y-88880000D03*
X100500000Y-86340000D03*
X111540000Y-76725000D03*
X109000000Y-76725000D03*
X106460000Y-76725000D03*
D16*
X84198000Y-95022000D02*
X85260000Y-93960000D01*
X84562000Y-97562000D02*
X84198000Y-97198000D01*
X91236314Y-103042000D02*
X85756314Y-97562000D01*
X127976314Y-103042000D02*
X91236314Y-103042000D01*
X84198000Y-97198000D02*
X84198000Y-95022000D01*
X132350000Y-108601346D02*
X132350000Y-107415686D01*
X133023654Y-109275000D02*
X132350000Y-108601346D01*
X134725000Y-109275000D02*
X133023654Y-109275000D01*
X132350000Y-107415686D02*
X127976314Y-103042000D01*
X136000000Y-108000000D02*
X134725000Y-109275000D01*
X85756314Y-97562000D02*
X84562000Y-97562000D01*
X91402000Y-102642000D02*
X85260000Y-96500000D01*
X128142000Y-102642000D02*
X91402000Y-102642000D01*
X133500000Y-108000000D02*
X128142000Y-102642000D01*
X132450000Y-94584314D02*
X132450000Y-94550000D01*
X102640000Y-101180000D02*
X125854314Y-101180000D01*
X125854314Y-101180000D02*
X132450000Y-94584314D01*
X100500000Y-99040000D02*
X102640000Y-101180000D01*
X132450000Y-93398654D02*
X132450000Y-94550000D01*
X133123654Y-92725000D02*
X132450000Y-93398654D01*
X134825000Y-92725000D02*
X133123654Y-92725000D01*
X136100000Y-94000000D02*
X134825000Y-92725000D01*
X126020000Y-101580000D02*
X100500000Y-101580000D01*
X133600000Y-94000000D02*
X126020000Y-101580000D01*
X102640000Y-86740000D02*
X100500000Y-88880000D01*
X107674314Y-86740000D02*
X102640000Y-86740000D01*
X114350000Y-94601346D02*
X114350000Y-93415686D01*
X114350000Y-93415686D02*
X107674314Y-86740000D01*
X115023654Y-95275000D02*
X114350000Y-94601346D01*
X118000000Y-94000000D02*
X116725000Y-95275000D01*
X116725000Y-95275000D02*
X115023654Y-95275000D01*
X111271346Y-104520000D02*
X102640000Y-104520000D01*
X114150000Y-108401346D02*
X114150000Y-107398654D01*
X115023654Y-109275000D02*
X114150000Y-108401346D01*
X114150000Y-107398654D02*
X111271346Y-104520000D01*
X116725000Y-109275000D02*
X115023654Y-109275000D01*
X118000000Y-108000000D02*
X116725000Y-109275000D01*
X102640000Y-104520000D02*
X100500000Y-106660000D01*
X115500000Y-108000000D02*
X111620000Y-104120000D01*
X111620000Y-104120000D02*
X100500000Y-104120000D01*
X115500000Y-94000000D02*
X107840000Y-86340000D01*
X107840000Y-86340000D02*
X100500000Y-86340000D01*
M02*
