G04 #@! TF.GenerationSoftware,KiCad,Pcbnew,8.0.5*
G04 #@! TF.CreationDate,2024-09-18T00:42:37+09:00*
G04 #@! TF.ProjectId,weight_measurement,77656967-6874-45f6-9d65-61737572656d,rev?*
G04 #@! TF.SameCoordinates,Original*
G04 #@! TF.FileFunction,Legend,Top*
G04 #@! TF.FilePolarity,Positive*
%FSLAX46Y46*%
G04 Gerber Fmt 4.6, Leading zero omitted, Abs format (unit mm)*
G04 Created by KiCad (PCBNEW 8.0.5) date 2024-09-18 00:42:37*
%MOMM*%
%LPD*%
G01*
G04 APERTURE LIST*
G04 Aperture macros list*
%AMRoundRect*
0 Rectangle with rounded corners*
0 $1 Rounding radius*
0 $2 $3 $4 $5 $6 $7 $8 $9 X,Y pos of 4 corners*
0 Add a 4 corners polygon primitive as box body*
4,1,4,$2,$3,$4,$5,$6,$7,$8,$9,$2,$3,0*
0 Add four circle primitives for the rounded corners*
1,1,$1+$1,$2,$3*
1,1,$1+$1,$4,$5*
1,1,$1+$1,$6,$7*
1,1,$1+$1,$8,$9*
0 Add four rect primitives between the rounded corners*
20,1,$1+$1,$2,$3,$4,$5,0*
20,1,$1+$1,$4,$5,$6,$7,0*
20,1,$1+$1,$6,$7,$8,$9,0*
20,1,$1+$1,$8,$9,$2,$3,0*%
G04 Aperture macros list end*
%ADD10C,0.100000*%
%ADD11C,0.120000*%
%ADD12O,2.000000X5.000000*%
%ADD13O,5.000000X2.000000*%
%ADD14C,3.200000*%
%ADD15C,1.200000*%
%ADD16RoundRect,0.250000X-0.600000X-0.725000X0.600000X-0.725000X0.600000X0.725000X-0.600000X0.725000X0*%
%ADD17O,1.700000X1.950000*%
%ADD18C,1.600000*%
%ADD19C,1.524000*%
G04 APERTURE END LIST*
D10*
X125920000Y-78730000D02*
X146240000Y-78730000D01*
X146240000Y-88890000D01*
X125920000Y-88890000D01*
X125920000Y-78730000D01*
D11*
X125650000Y-105250000D02*
X125650000Y-106500000D01*
X125940000Y-105540000D02*
X125940000Y-111510000D01*
X125940000Y-111510000D02*
X138560000Y-111510000D01*
X125950000Y-105550000D02*
X125950000Y-106300000D01*
X125950000Y-106300000D02*
X127750000Y-106300000D01*
X125950000Y-107800000D02*
X126700000Y-107800000D01*
X126700000Y-107800000D02*
X126700000Y-109140000D01*
X126900000Y-105250000D02*
X125650000Y-105250000D01*
X127750000Y-105550000D02*
X125950000Y-105550000D01*
X127750000Y-106300000D02*
X127750000Y-105550000D01*
X129250000Y-105550000D02*
X129250000Y-106300000D01*
X129250000Y-106300000D02*
X135250000Y-106300000D01*
X132250000Y-110750000D02*
X127760000Y-110750000D01*
X135250000Y-105550000D02*
X129250000Y-105550000D01*
X135250000Y-106300000D02*
X135250000Y-105550000D01*
X136750000Y-105550000D02*
X136750000Y-106300000D01*
X136750000Y-106300000D02*
X138550000Y-106300000D01*
X137800000Y-107800000D02*
X137800000Y-110750000D01*
X137800000Y-110750000D02*
X132250000Y-110750000D01*
X138550000Y-105550000D02*
X136750000Y-105550000D01*
X138550000Y-106300000D02*
X138550000Y-105550000D01*
X138550000Y-107800000D02*
X137800000Y-107800000D01*
X138560000Y-105540000D02*
X125940000Y-105540000D01*
X138560000Y-111510000D02*
X138560000Y-105540000D01*
X138660000Y-97510000D02*
X138660000Y-91540000D01*
X138660000Y-91540000D02*
X126040000Y-91540000D01*
X138650000Y-93800000D02*
X137900000Y-93800000D01*
X138650000Y-92300000D02*
X138650000Y-91550000D01*
X138650000Y-91550000D02*
X136850000Y-91550000D01*
X137900000Y-96750000D02*
X132350000Y-96750000D01*
X137900000Y-93800000D02*
X137900000Y-96750000D01*
X136850000Y-92300000D02*
X138650000Y-92300000D01*
X136850000Y-91550000D02*
X136850000Y-92300000D01*
X135350000Y-92300000D02*
X135350000Y-91550000D01*
X135350000Y-91550000D02*
X129350000Y-91550000D01*
X132350000Y-96750000D02*
X127860000Y-96750000D01*
X129350000Y-92300000D02*
X135350000Y-92300000D01*
X129350000Y-91550000D02*
X129350000Y-92300000D01*
X127850000Y-92300000D02*
X127850000Y-91550000D01*
X127850000Y-91550000D02*
X126050000Y-91550000D01*
X127000000Y-91250000D02*
X125750000Y-91250000D01*
X126800000Y-93800000D02*
X126800000Y-95140000D01*
X126050000Y-93800000D02*
X126800000Y-93800000D01*
X126050000Y-92300000D02*
X127850000Y-92300000D01*
X126050000Y-91550000D02*
X126050000Y-92300000D01*
X126040000Y-97510000D02*
X138660000Y-97510000D01*
X126040000Y-91540000D02*
X126040000Y-97510000D01*
X125750000Y-91250000D02*
X125750000Y-92500000D01*
X94270000Y-78250000D02*
G75*
G02*
X87730000Y-78250000I-3270000J0D01*
G01*
X87730000Y-78250000D02*
G75*
G02*
X94270000Y-78250000I3270000J0D01*
G01*
X107650000Y-91250000D02*
X107650000Y-92500000D01*
X107940000Y-91540000D02*
X107940000Y-97510000D01*
X107940000Y-97510000D02*
X120560000Y-97510000D01*
X107950000Y-91550000D02*
X107950000Y-92300000D01*
X107950000Y-92300000D02*
X109750000Y-92300000D01*
X107950000Y-93800000D02*
X108700000Y-93800000D01*
X108700000Y-93800000D02*
X108700000Y-95140000D01*
X108900000Y-91250000D02*
X107650000Y-91250000D01*
X109750000Y-91550000D02*
X107950000Y-91550000D01*
X109750000Y-92300000D02*
X109750000Y-91550000D01*
X111250000Y-91550000D02*
X111250000Y-92300000D01*
X111250000Y-92300000D02*
X117250000Y-92300000D01*
X114250000Y-96750000D02*
X109760000Y-96750000D01*
X117250000Y-91550000D02*
X111250000Y-91550000D01*
X117250000Y-92300000D02*
X117250000Y-91550000D01*
X118750000Y-91550000D02*
X118750000Y-92300000D01*
X118750000Y-92300000D02*
X120550000Y-92300000D01*
X119800000Y-93800000D02*
X119800000Y-96750000D01*
X119800000Y-96750000D02*
X114250000Y-96750000D01*
X120550000Y-91550000D02*
X118750000Y-91550000D01*
X120550000Y-92300000D02*
X120550000Y-91550000D01*
X120550000Y-93800000D02*
X119800000Y-93800000D01*
X120560000Y-91540000D02*
X107940000Y-91540000D01*
X120560000Y-97510000D02*
X120560000Y-91540000D01*
X102270000Y-78250000D02*
G75*
G02*
X95730000Y-78250000I-3270000J0D01*
G01*
X95730000Y-78250000D02*
G75*
G02*
X102270000Y-78250000I3270000J0D01*
G01*
X123520000Y-78000000D02*
G75*
G02*
X116980000Y-78000000I-3270000J0D01*
G01*
X116980000Y-78000000D02*
G75*
G02*
X123520000Y-78000000I3270000J0D01*
G01*
X107650000Y-105250000D02*
X107650000Y-106500000D01*
X107940000Y-105540000D02*
X107940000Y-111510000D01*
X107940000Y-111510000D02*
X120560000Y-111510000D01*
X107950000Y-105550000D02*
X107950000Y-106300000D01*
X107950000Y-106300000D02*
X109750000Y-106300000D01*
X107950000Y-107800000D02*
X108700000Y-107800000D01*
X108700000Y-107800000D02*
X108700000Y-109140000D01*
X108900000Y-105250000D02*
X107650000Y-105250000D01*
X109750000Y-105550000D02*
X107950000Y-105550000D01*
X109750000Y-106300000D02*
X109750000Y-105550000D01*
X111250000Y-105550000D02*
X111250000Y-106300000D01*
X111250000Y-106300000D02*
X117250000Y-106300000D01*
X114250000Y-110750000D02*
X109760000Y-110750000D01*
X117250000Y-105550000D02*
X111250000Y-105550000D01*
X117250000Y-106300000D02*
X117250000Y-105550000D01*
X118750000Y-105550000D02*
X118750000Y-106300000D01*
X118750000Y-106300000D02*
X120550000Y-106300000D01*
X119800000Y-107800000D02*
X119800000Y-110750000D01*
X119800000Y-110750000D02*
X114250000Y-110750000D01*
X120550000Y-105550000D02*
X118750000Y-105550000D01*
X120550000Y-106300000D02*
X120550000Y-105550000D01*
X120550000Y-107800000D02*
X119800000Y-107800000D01*
X120560000Y-105540000D02*
X107940000Y-105540000D01*
X120560000Y-111510000D02*
X120560000Y-105540000D01*
D10*
X82720000Y-83800000D02*
X103040000Y-83800000D01*
X103040000Y-109200000D01*
X82720000Y-109200000D01*
X82720000Y-83800000D01*
X103250000Y-74725000D02*
X114750000Y-74725000D01*
X114750000Y-82275000D01*
X103250000Y-82275000D01*
X103250000Y-74725000D01*
%LPC*%
D12*
X127950000Y-84900000D03*
X134050000Y-84900000D03*
D13*
X131000000Y-80000000D03*
D14*
X79000000Y-73500000D03*
X144000000Y-113500000D03*
D15*
X126900000Y-110000000D03*
D16*
X128500000Y-108000000D03*
D17*
X131000000Y-108000000D03*
X133500000Y-108000000D03*
X136000000Y-108000000D03*
X136100000Y-94000000D03*
X133600000Y-94000000D03*
X131100000Y-94000000D03*
D16*
X128600000Y-94000000D03*
D15*
X127000000Y-96000000D03*
D14*
X79000000Y-113500000D03*
D18*
X91000000Y-79500000D03*
X91000000Y-77000000D03*
D15*
X108900000Y-96000000D03*
D16*
X110500000Y-94000000D03*
D17*
X113000000Y-94000000D03*
X115500000Y-94000000D03*
X118000000Y-94000000D03*
D14*
X144000000Y-73500000D03*
D18*
X99000000Y-79500000D03*
X99000000Y-77000000D03*
X119000000Y-78000000D03*
X121500000Y-78000000D03*
D15*
X108900000Y-110000000D03*
D16*
X110500000Y-108000000D03*
D17*
X113000000Y-108000000D03*
X115500000Y-108000000D03*
X118000000Y-108000000D03*
D19*
X85260000Y-86340000D03*
X85260000Y-88880000D03*
X85260000Y-91420000D03*
X85260000Y-93960000D03*
X85260000Y-96500000D03*
X85260000Y-99040000D03*
X100500000Y-106660000D03*
X100500000Y-104120000D03*
X100500000Y-101580000D03*
X100500000Y-99040000D03*
X100500000Y-96500000D03*
X100500000Y-93960000D03*
X100500000Y-91420000D03*
X100500000Y-88880000D03*
X100500000Y-86340000D03*
X111540000Y-76725000D03*
X109000000Y-76725000D03*
X106460000Y-76725000D03*
%LPD*%
M02*
