M48
; DRILL file {KiCad 8.0.5} date 2024-09-18T00:43:06+0900
; FORMAT={-:-/ absolute / metric / decimal}
; #@! TF.CreationDate,2024-09-18T00:43:06+09:00
; #@! TF.GenerationSoftware,Kicad,Pcbnew,8.0.5
; #@! TF.FileFunction,Plated,1,2,PTH
FMAT,2
METRIC
; #@! TA.AperFunction,Plated,PTH,ComponentDrill
T1C0.762
; #@! TA.AperFunction,Plated,PTH,ComponentDrill
T2C0.800
; #@! TA.AperFunction,Plated,PTH,ComponentDrill
T3C0.950
; #@! TA.AperFunction,Plated,PTH,ComponentDrill
T4C1.000
%
G90
G05
T1
X85.26Y-86.34
X85.26Y-88.88
X85.26Y-91.42
X85.26Y-93.96
X85.26Y-96.5
X85.26Y-99.04
X100.5Y-86.34
X100.5Y-88.88
X100.5Y-91.42
X100.5Y-93.96
X100.5Y-96.5
X100.5Y-99.04
X100.5Y-101.58
X100.5Y-104.12
X100.5Y-106.66
X106.46Y-76.725
X109.0Y-76.725
X111.54Y-76.725
T2
X91.0Y-77.0
X91.0Y-79.5
X99.0Y-77.0
X99.0Y-79.5
X119.0Y-78.0
X121.5Y-78.0
T3
X110.5Y-94.0
X110.5Y-108.0
X113.0Y-94.0
X113.0Y-108.0
X115.5Y-94.0
X115.5Y-108.0
X118.0Y-94.0
X118.0Y-108.0
X128.5Y-108.0
X128.6Y-94.0
X131.0Y-108.0
X131.1Y-94.0
X133.5Y-108.0
X133.6Y-94.0
X136.0Y-108.0
X136.1Y-94.0
T4
G00X127.95Y-83.9
M15
G01X127.95Y-85.9
M16
G05
G00X130.0Y-80.0
M15
G01X132.0Y-80.0
M16
G05
G00X134.05Y-83.9
M15
G01X134.05Y-85.9
M16
G05
M30
