G04 #@! TF.GenerationSoftware,KiCad,Pcbnew,8.0.5*
G04 #@! TF.CreationDate,2024-09-18T00:42:37+09:00*
G04 #@! TF.ProjectId,weight_measurement,77656967-6874-45f6-9d65-61737572656d,rev?*
G04 #@! TF.SameCoordinates,Original*
G04 #@! TF.FileFunction,Soldermask,Top*
G04 #@! TF.FilePolarity,Negative*
%FSLAX46Y46*%
G04 Gerber Fmt 4.6, Leading zero omitted, Abs format (unit mm)*
G04 Created by KiCad (PCBNEW 8.0.5) date 2024-09-18 00:42:37*
%MOMM*%
%LPD*%
G01*
G04 APERTURE LIST*
G04 Aperture macros list*
%AMRoundRect*
0 Rectangle with rounded corners*
0 $1 Rounding radius*
0 $2 $3 $4 $5 $6 $7 $8 $9 X,Y pos of 4 corners*
0 Add a 4 corners polygon primitive as box body*
4,1,4,$2,$3,$4,$5,$6,$7,$8,$9,$2,$3,0*
0 Add four circle primitives for the rounded corners*
1,1,$1+$1,$2,$3*
1,1,$1+$1,$4,$5*
1,1,$1+$1,$6,$7*
1,1,$1+$1,$8,$9*
0 Add four rect primitives between the rounded corners*
20,1,$1+$1,$2,$3,$4,$5,0*
20,1,$1+$1,$4,$5,$6,$7,0*
20,1,$1+$1,$6,$7,$8,$9,0*
20,1,$1+$1,$8,$9,$2,$3,0*%
G04 Aperture macros list end*
%ADD10O,2.000000X5.000000*%
%ADD11O,5.000000X2.000000*%
%ADD12C,3.200000*%
%ADD13C,1.200000*%
%ADD14RoundRect,0.250000X-0.600000X-0.725000X0.600000X-0.725000X0.600000X0.725000X-0.600000X0.725000X0*%
%ADD15O,1.700000X1.950000*%
%ADD16C,1.600000*%
%ADD17C,1.524000*%
G04 APERTURE END LIST*
D10*
X127950000Y-84900000D03*
X134050000Y-84900000D03*
D11*
X131000000Y-80000000D03*
D12*
X79000000Y-73500000D03*
X144000000Y-113500000D03*
D13*
X126900000Y-110000000D03*
D14*
X128500000Y-108000000D03*
D15*
X131000000Y-108000000D03*
X133500000Y-108000000D03*
X136000000Y-108000000D03*
X136100000Y-94000000D03*
X133600000Y-94000000D03*
X131100000Y-94000000D03*
D14*
X128600000Y-94000000D03*
D13*
X127000000Y-96000000D03*
D12*
X79000000Y-113500000D03*
D16*
X91000000Y-79500000D03*
X91000000Y-77000000D03*
D13*
X108900000Y-96000000D03*
D14*
X110500000Y-94000000D03*
D15*
X113000000Y-94000000D03*
X115500000Y-94000000D03*
X118000000Y-94000000D03*
D12*
X144000000Y-73500000D03*
D16*
X99000000Y-79500000D03*
X99000000Y-77000000D03*
X119000000Y-78000000D03*
X121500000Y-78000000D03*
D13*
X108900000Y-110000000D03*
D14*
X110500000Y-108000000D03*
D15*
X113000000Y-108000000D03*
X115500000Y-108000000D03*
X118000000Y-108000000D03*
D17*
X85260000Y-86340000D03*
X85260000Y-88880000D03*
X85260000Y-91420000D03*
X85260000Y-93960000D03*
X85260000Y-96500000D03*
X85260000Y-99040000D03*
X100500000Y-106660000D03*
X100500000Y-104120000D03*
X100500000Y-101580000D03*
X100500000Y-99040000D03*
X100500000Y-96500000D03*
X100500000Y-93960000D03*
X100500000Y-91420000D03*
X100500000Y-88880000D03*
X100500000Y-86340000D03*
X111540000Y-76725000D03*
X109000000Y-76725000D03*
X106460000Y-76725000D03*
M02*
