ISO-10303-21;
HEADER;
FILE_DESCRIPTION (( 'STEP AP214' ),
    '1' );
FILE_NAME ('ロードセルユニット天板.STEP',
    '2024-09-09T15:10:01',
    ( '' ),
    ( '' ),
    'SwSTEP 2.0',
    'SolidWorks 2023',
    '' );
FILE_SCHEMA (( 'AUTOMOTIVE_DESIGN' ));
ENDSEC;

DATA;
#1 = CARTESIAN_POINT ( 'NONE',  ( 2.999999999999992895, 30.50000000000001066, 8.000000000000000000 ) ) ;
#2 = DIRECTION ( 'NONE',  ( 0.000000000000000000, 0.000000000000000000, 1.000000000000000000 ) ) ;
#3 = DIRECTION ( 'NONE',  ( -0.000000000000000000, -0.000000000000000000, -1.000000000000000000 ) ) ;
#4 = CYLINDRICAL_SURFACE ( 'NONE', #180, 2.000000000000000000 ) ;
#5 = VECTOR ( 'NONE', #1103, 1000.000000000000000 ) ;
#6 = CARTESIAN_POINT ( 'NONE',  ( 15.50000000000000711, 43.00000000000000000, 8.000000000000000000 ) ) ;
#7 = EDGE_CURVE ( 'NONE', #891, #942, #365, .T. ) ;
#8 = ORIENTED_EDGE ( 'NONE', *, *, #897, .F. ) ;
#9 = AXIS2_PLACEMENT_3D ( 'NONE', #673, #587, #680 ) ;
#10 = DIRECTION ( 'NONE',  ( 0.000000000000000000, 0.000000000000000000, 1.000000000000000000 ) ) ;
#11 = CARTESIAN_POINT ( 'NONE',  ( 0.000000000000000000, 41.00000000000000000, 0.000000000000000000 ) ) ;
#12 = CARTESIAN_POINT ( 'NONE',  ( 2.171572875253802604, 31.32842712474619873, 2.999999999999999556 ) ) ;
#13 = EDGE_LOOP ( 'NONE', ( #385, #1061, #37, #905 ) ) ;
#14 = FACE_BOUND ( 'NONE', #559, .T. ) ;
#15 = ORIENTED_EDGE ( 'NONE', *, *, #339, .T. ) ;
#16 = DIRECTION ( 'NONE',  ( -1.000000000000000000, 0.000000000000000000, 0.000000000000000000 ) ) ;
#17 = VERTEX_POINT ( 'NONE', #895 ) ;
#18 = DIRECTION ( 'NONE',  ( 0.000000000000000000, 0.000000000000000000, -1.000000000000000000 ) ) ;
#19 = ORIENTED_EDGE ( 'NONE', *, *, #143, .F. ) ;
#20 = ADVANCED_FACE ( 'NONE', ( #94, #732 ), #1166, .T. ) ;
#21 = DIRECTION ( 'NONE',  ( 0.000000000000000000, 1.000000000000000000, 0.000000000000000000 ) ) ;
#22 = TOROIDAL_SURFACE ( 'NONE', #1115, 7.000000000000000888, 2.000000000000000000 ) ;
#23 = ORIENTED_EDGE ( 'NONE', *, *, #1033, .T. ) ;
#24 = DIRECTION ( 'NONE',  ( 0.000000000000000000, 1.000000000000000000, 0.000000000000000000 ) ) ;
#25 = VECTOR ( 'NONE', #843, 1000.000000000000000 ) ;
#26 = EDGE_CURVE ( 'NONE', #538, #235, #552, .T. ) ;
#27 = CARTESIAN_POINT ( 'NONE',  ( 43.00000000000000000, 30.50000000000000355, 5.000000000000000000 ) ) ;
#28 = ORIENTED_EDGE ( 'NONE', *, *, #764, .T. ) ;
#29 = DIRECTION ( 'NONE',  ( -1.000000000000000000, 0.000000000000000000, 0.000000000000000000 ) ) ;
#30 = CARTESIAN_POINT ( 'NONE',  ( 0.000000000000000000, 46.00000000000000000, 3.000000000000000000 ) ) ;
#31 = CARTESIAN_POINT ( 'NONE',  ( 5.000000000000000000, 46.00000000000000000, 3.000000000000000000 ) ) ;
#32 = EDGE_LOOP ( 'NONE', ( #242, #704, #63, #510 ) ) ;
#33 = FACE_OUTER_BOUND ( 'NONE', #358, .T. ) ;
#34 = ORIENTED_EDGE ( 'NONE', *, *, #280, .T. ) ;
#35 = EDGE_CURVE ( 'NONE', #880, #909, #679, .T. ) ;
#36 = PLANE ( 'NONE',  #698 ) ;
#37 = ORIENTED_EDGE ( 'NONE', *, *, #963, .F. ) ;
#38 = EDGE_CURVE ( 'NONE', #788, #435, #802, .T. ) ;
#39 = FACE_OUTER_BOUND ( 'NONE', #678, .T. ) ;
#40 = CLOSED_SHELL ( 'NONE', ( #162, #73, #831, #448, #973, #86, #179, #611, #20, #258, #125, #685, #785, #506, #170, #726, #114, #413, #662, #317, #599, #738, #382, #823, #668, #200, #367, #91, #1124, #577, #135, #584, #1090, #1170, #925, #1161, #1123, #661, #282, #1129 ) ) ;
#41 = AXIS2_PLACEMENT_3D ( 'NONE', #381, #1105, #29 ) ;
#42 = LINE ( 'NONE', #759, #1025 ) ;
#43 = PLANE ( 'NONE',  #97 ) ;
#44 = DIRECTION ( 'NONE',  ( -0.000000000000000000, 1.000000000000000000, 0.000000000000000000 ) ) ;
#45 = DIRECTION ( 'NONE',  ( -1.224646799147353207E-16, 1.000000000000000000, 0.000000000000000000 ) ) ;
#46 = VECTOR ( 'NONE', #1125, 1000.000000000000000 ) ;
#47 = EDGE_CURVE ( 'NONE', #862, #235, #858, .T. ) ;
#48 = DIRECTION ( 'NONE',  ( 0.000000000000000000, -0.000000000000000000, 1.000000000000000000 ) ) ;
#49 = CARTESIAN_POINT ( 'NONE',  ( 39.99999999999999289, 30.50000000000000355, 8.000000000000000000 ) ) ;
#50 = CARTESIAN_POINT ( 'NONE',  ( 45.99999999999999289, 5.000000000000000000, 3.000000000000000000 ) ) ;
#51 = CARTESIAN_POINT ( 'NONE',  ( 39.99999999999999289, 30.50000000000000355, 8.000000000000000000 ) ) ;
#52 = EDGE_CURVE ( 'NONE', #1151, #862, #1073, .T. ) ;
#53 = LINE ( 'NONE', #395, #272 ) ;
#54 = PLANE ( 'NONE',  #128 ) ;
#55 = ORIENTED_EDGE ( 'NONE', *, *, #635, .T. ) ;
#56 = DIRECTION ( 'NONE',  ( 1.000000000000000000, 0.000000000000000000, 0.000000000000000000 ) ) ;
#57 = VECTOR ( 'NONE', #203, 1000.000000000000000 ) ;
#58 = TOROIDAL_SURFACE ( 'NONE', #174, 7.000000000000000888, 2.000000000000000000 ) ;
#59 = DIRECTION ( 'NONE',  ( 0.000000000000000000, 0.000000000000000000, -1.000000000000000000 ) ) ;
#60 = EDGE_CURVE ( 'NONE', #452, #783, #633, .T. ) ;
#61 = DIRECTION ( 'NONE',  ( 0.000000000000000000, -1.000000000000000000, 0.000000000000000000 ) ) ;
#62 = EDGE_LOOP ( 'NONE', ( #713, #190 ) ) ;
#63 = ORIENTED_EDGE ( 'NONE', *, *, #409, .F. ) ;
#64 = DIRECTION ( 'NONE',  ( -1.000000000000000000, -0.000000000000000000, -0.000000000000000000 ) ) ;
#65 = VECTOR ( 'NONE', #1130, 1000.000000000000000 ) ;
#66 = CARTESIAN_POINT ( 'NONE',  ( 0.9999999999999926725, 30.50000000000001066, 5.000000000000000000 ) ) ;
#67 = FILL_AREA_STYLE ('',( #412 ) ) ;
#68 = LINE ( 'NONE', #150, #403 ) ;
#69 = VERTEX_POINT ( 'NONE', #797 ) ;
#70 = FACE_OUTER_BOUND ( 'NONE', #978, .T. ) ;
#71 = CARTESIAN_POINT ( 'NONE',  ( 2.999999999999994227, 15.50000000000000711, 3.828427124746190291 ) ) ;
#72 = VERTEX_POINT ( 'NONE', #712 ) ;
#73 = ADVANCED_FACE ( 'NONE', ( #918 ), #101, .T. ) ;
#74 = AXIS2_PLACEMENT_3D ( 'NONE', #416, #509, #1048 ) ;
#75 = DIRECTION ( 'NONE',  ( 0.000000000000000000, 0.000000000000000000, -1.000000000000000000 ) ) ;
#76 = VECTOR ( 'NONE', #1132, 1000.000000000000000 ) ;
#77 = LINE ( 'NONE', #1, #625 ) ;
#78 = VERTEX_POINT ( 'NONE', #807 ) ;
#79 = DIRECTION ( 'NONE',  ( 0.000000000000000000, 1.000000000000000000, 0.000000000000000000 ) ) ;
#80 = EDGE_CURVE ( 'NONE', #796, #561, #372, .T. ) ;
#81 = DIRECTION ( 'NONE',  ( -1.000000000000000000, 0.000000000000000000, 0.000000000000000000 ) ) ;
#82 = PLANE ( 'NONE',  #418 ) ;
#83 = ORIENTED_EDGE ( 'NONE', *, *, #47, .F. ) ;
#84 = VERTEX_POINT ( 'NONE', #287 ) ;
#85 = ORIENTED_EDGE ( 'NONE', *, *, #904, .F. ) ;
#86 = ADVANCED_FACE ( 'NONE', ( #988 ), #901, .F. ) ;
#87 = CARTESIAN_POINT ( 'NONE',  ( 0.9999999999999945599, 13.50000000000001066, 3.000000000000000000 ) ) ;
#88 = CARTESIAN_POINT ( 'NONE',  ( 22.99999999999999645, 23.00000000000000000, 5.000000000000000000 ) ) ;
#89 = DIRECTION ( 'NONE',  ( 1.000000000000000000, -0.000000000000000000, 0.000000000000000000 ) ) ;
#90 = DIRECTION ( 'NONE',  ( -1.000000000000000000, 0.000000000000000000, 0.000000000000000000 ) ) ;
#91 = ADVANCED_FACE ( 'NONE', ( #1086 ), #357, .F. ) ;
#92 = AXIS2_PLACEMENT_3D ( 'NONE', #1101, #560, #292 ) ;
#93 = DIRECTION ( 'NONE',  ( 0.000000000000000000, 0.000000000000000000, -1.000000000000000000 ) ) ;
#94 = FACE_BOUND ( 'NONE', #62, .T. ) ;
#95 = ORIENTED_EDGE ( 'NONE', *, *, #26, .T. ) ;
#96 = LINE ( 'NONE', #889, #566 ) ;
#97 = AXIS2_PLACEMENT_3D ( 'NONE', #578, #940, #479 ) ;
#98 = VECTOR ( 'NONE', #75, 1000.000000000000000 ) ;
#99 = PLANE ( 'NONE',  #604 ) ;
#100 = ORIENTED_EDGE ( 'NONE', *, *, #492, .T. ) ;
#101 = CYLINDRICAL_SURFACE ( 'NONE', #989, 2.499999999999998668 ) ;
#102 = EDGE_LOOP ( 'NONE', ( #525, #34 ) ) ;
#103 = DIRECTION ( 'NONE',  ( 1.000000000000000000, 0.000000000000000000, 0.000000000000000000 ) ) ;
#104 = DIRECTION ( 'NONE',  ( -1.000000000000000000, 0.000000000000000000, 0.000000000000000000 ) ) ;
#105 = ORIENTED_EDGE ( 'NONE', *, *, #216, .F. ) ;
#106 = DIRECTION ( 'NONE',  ( -0.000000000000000000, -0.000000000000000000, -1.000000000000000000 ) ) ;
#107 = EDGE_CURVE ( 'NONE', #444, #371, #152, .T. ) ;
#108 = CARTESIAN_POINT ( 'NONE',  ( 45.99999999999999289, 0.000000000000000000, 0.000000000000000000 ) ) ;
#109 = AXIS2_PLACEMENT_3D ( 'NONE', #49, #61, #241 ) ;
#110 = ORIENTED_EDGE ( 'NONE', *, *, #956, .F. ) ;
#111 = DIRECTION ( 'NONE',  ( 0.000000000000000000, -1.000000000000000000, 0.000000000000000000 ) ) ;
#112 = ORIENTED_EDGE ( 'NONE', *, *, #375, .T. ) ;
#113 = AXIS2_PLACEMENT_3D ( 'NONE', #937, #767, #1128 ) ;
#114 = ADVANCED_FACE ( 'NONE', ( #410 ), #421, .F. ) ;
#115 = CARTESIAN_POINT ( 'NONE',  ( 43.00000000000000000, 15.50000000000000355, 5.000000000000000000 ) ) ;
#116 = VERTEX_POINT ( 'NONE', #315 ) ;
#117 = PLANE ( 'NONE',  #791 ) ;
#118 = DIRECTION ( 'NONE',  ( -1.000000000000000000, 0.000000000000000000, 0.000000000000000000 ) ) ;
#119 = EDGE_CURVE ( 'NONE', #788, #561, #401, .T. ) ;
#120 = CARTESIAN_POINT ( 'NONE',  ( 2.999999999999994227, 15.50000000000001066, 5.000000000000000000 ) ) ;
#121 = ORIENTED_EDGE ( 'NONE', *, *, #770, .F. ) ;
#122 = FACE_OUTER_BOUND ( 'NONE', #886, .T. ) ;
#123 = DIRECTION ( 'NONE',  ( -1.000000000000000000, 0.000000000000000000, 0.000000000000000000 ) ) ;
#124 = ORIENTED_EDGE ( 'NONE', *, *, #354, .F. ) ;
#125 = ADVANCED_FACE ( 'NONE', ( #470 ), #1104, .T. ) ;
#126 = DIRECTION ( 'NONE',  ( 0.000000000000000000, 0.000000000000000000, 1.000000000000000000 ) ) ;
#127 = DIRECTION ( 'NONE',  ( 1.000000000000000000, 0.000000000000000000, 0.000000000000000000 ) ) ;
#128 = AXIS2_PLACEMENT_3D ( 'NONE', #234, #1139, #777 ) ;
#129 = CIRCLE ( 'NONE', #230, 5.000000000000000888 ) ;
#130 = VECTOR ( 'NONE', #106, 1000.000000000000000 ) ;
#131 = CARTESIAN_POINT ( 'NONE',  ( 42.99999999999999289, 15.50000000000000178, 3.828427124746190291 ) ) ;
#132 = LINE ( 'NONE', #1027, #659 ) ;
#133 = CARTESIAN_POINT ( 'NONE',  ( 43.82842712474621294, 31.32842712474619162, 3.000000000000000888 ) ) ;
#134 = ORIENTED_EDGE ( 'NONE', *, *, #52, .F. ) ;
#135 = ADVANCED_FACE ( 'NONE', ( #1054 ), #1068, .T. ) ;
#136 = DIRECTION ( 'NONE',  ( 0.000000000000000000, 0.000000000000000000, 1.000000000000000000 ) ) ;
#137 =( GEOMETRIC_REPRESENTATION_CONTEXT ( 3 ) GLOBAL_UNCERTAINTY_ASSIGNED_CONTEXT ( ( #723 ) ) GLOBAL_UNIT_ASSIGNED_CONTEXT ( ( #716, #454, #1074 ) ) REPRESENTATION_CONTEXT ( 'NONE', 'WORKASPACE' ) );
#138 = CARTESIAN_POINT ( 'NONE',  ( 15.50000000000000711, 43.00000000000000000, 5.000000000000000000 ) ) ;
#139 = DIRECTION ( 'NONE',  ( 0.000000000000000000, 1.000000000000000000, 0.000000000000000000 ) ) ;
#140 = ORIENTED_EDGE ( 'NONE', *, *, #897, .T. ) ;
#141 =( NAMED_UNIT ( * ) SI_UNIT ( $, .STERADIAN. ) SOLID_ANGLE_UNIT ( ) );
#142 = ORIENTED_EDGE ( 'NONE', *, *, #963, .T. ) ;
#143 = EDGE_CURVE ( 'NONE', #245, #351, #262, .T. ) ;
#144 = DIRECTION ( 'NONE',  ( 4.625929269271485914E-16, -1.000000000000000000, 0.000000000000000000 ) ) ;
#145 = LINE ( 'NONE', #507, #894 ) ;
#146 = VERTEX_POINT ( 'NONE', #789 ) ;
#147 = CARTESIAN_POINT ( 'NONE',  ( 45.00000000000000711, 32.50000000000000000, 3.000000000000000000 ) ) ;
#148 = ORIENTED_EDGE ( 'NONE', *, *, #792, .F. ) ;
#149 = ORIENTED_EDGE ( 'NONE', *, *, #1020, .T. ) ;
#150 = CARTESIAN_POINT ( 'NONE',  ( 39.99999999999999289, 30.50000000000000355, 3.000000000000000000 ) ) ;
#151 = CIRCLE ( 'NONE', #860, 4.999999999999997335 ) ;
#152 = CIRCLE ( 'NONE', #865, 2.000000000000000000 ) ;
#153 = CARTESIAN_POINT ( 'NONE',  ( 45.99999999999999289, 5.000000000000000000, 3.000000000000000000 ) ) ;
#154 = FACE_OUTER_BOUND ( 'NONE', #707, .T. ) ;
#155 = ORIENTED_EDGE ( 'NONE', *, *, #888, .F. ) ;
#156 = VERTEX_POINT ( 'NONE', #255 ) ;
#157 = DIRECTION ( 'NONE',  ( 0.000000000000000000, 0.000000000000000000, -1.000000000000000000 ) ) ;
#158 = AXIS2_PLACEMENT_3D ( 'NONE', #414, #1136, #859 ) ;
#159 = ORIENTED_EDGE ( 'NONE', *, *, #333, .T. ) ;
#160 = EDGE_CURVE ( 'NONE', #967, #705, #857, .T. ) ;
#161 = LINE ( 'NONE', #693, #477 ) ;
#162 = ADVANCED_FACE ( 'NONE', ( #419 ), #58, .F. ) ;
#163 = ORIENTED_EDGE ( 'NONE', *, *, #542, .F. ) ;
#164 = FACE_OUTER_BOUND ( 'NONE', #13, .T. ) ;
#165 = EDGE_LOOP ( 'NONE', ( #1084, #215 ) ) ;
#166 = CARTESIAN_POINT ( 'NONE',  ( 43.00000000000000000, 30.50000000000000355, 8.000000000000000000 ) ) ;
#167 = ORIENTED_EDGE ( 'NONE', *, *, #867, .T. ) ;
#168 = DIRECTION ( 'NONE',  ( 1.000000000000000000, 0.000000000000000000, 0.000000000000000000 ) ) ;
#169 = EDGE_LOOP ( 'NONE', ( #326, #696, #319, #267, #709, #1034 ) ) ;
#170 = ADVANCED_FACE ( 'NONE', ( #512 ), #243, .T. ) ;
#171 = VERTEX_POINT ( 'NONE', #977 ) ;
#172 = CIRCLE ( 'NONE', #548, 4.999999999999997335 ) ;
#173 = CARTESIAN_POINT ( 'NONE',  ( 30.50000000000000711, 39.99999999999999289, 8.000000000000000000 ) ) ;
#174 = AXIS2_PLACEMENT_3D ( 'NONE', #686, #522, #768 ) ;
#175 = CARTESIAN_POINT ( 'NONE',  ( 40.99999999999999289, 5.000000000000000000, 3.000000000000000000 ) ) ;
#176 = ORIENTED_EDGE ( 'NONE', *, *, #536, .F. ) ;
#177 = VERTEX_POINT ( 'NONE', #706 ) ;
#178 = DIRECTION ( 'NONE',  ( -1.000000000000000000, 0.000000000000000000, 0.000000000000000000 ) ) ;
#179 = ADVANCED_FACE ( 'NONE', ( #1141 ), #961, .F. ) ;
#180 = AXIS2_PLACEMENT_3D ( 'NONE', #1162, #347, #336 ) ;
#181 = FACE_OUTER_BOUND ( 'NONE', #464, .T. ) ;
#182 = ORIENTED_EDGE ( 'NONE', *, *, #375, .F. ) ;
#183 = CARTESIAN_POINT ( 'NONE',  ( 30.50000000000000711, 43.00000000000000000, 8.000000000000000000 ) ) ;
#184 = DIRECTION ( 'NONE',  ( 0.000000000000000000, 1.000000000000000000, 0.000000000000000000 ) ) ;
#185 = EDGE_CURVE ( 'NONE', #1157, #245, #501, .T. ) ;
#186 = DIRECTION ( 'NONE',  ( 0.000000000000000000, 0.000000000000000000, 1.000000000000000000 ) ) ;
#187 = ORIENTED_EDGE ( 'NONE', *, *, #7, .F. ) ;
#188 = LINE ( 'NONE', #974, #809 ) ;
#189 = CARTESIAN_POINT ( 'NONE',  ( 2.999999999999992895, 30.50000000000001066, 8.000000000000000000 ) ) ;
#190 = ORIENTED_EDGE ( 'NONE', *, *, #934, .F. ) ;
#191 = COLOUR_RGB ( '',0.7921568627450980005, 0.8196078431372548767, 0.9333333333333333481 ) ;
#192 = LINE ( 'NONE', #209, #338 ) ;
#193 = VECTOR ( 'NONE', #540, 1000.000000000000000 ) ;
#194 = CARTESIAN_POINT ( 'NONE',  ( 5.999999999999992895, 30.50000000000001066, 3.000000000000000000 ) ) ;
#195 = DIRECTION ( 'NONE',  ( 0.000000000000000000, -1.000000000000000000, 0.000000000000000000 ) ) ;
#196 = CIRCLE ( 'NONE', #420, 7.000000000000002665 ) ;
#197 = ORIENTED_EDGE ( 'NONE', *, *, #819, .F. ) ;
#198 = EDGE_CURVE ( 'NONE', #265, #967, #1149, .T. ) ;
#199 = DIRECTION ( 'NONE',  ( 0.000000000000000000, 1.000000000000000000, 0.000000000000000000 ) ) ;
#200 = ADVANCED_FACE ( 'NONE', ( #334 ), #246, .F. ) ;
#201 = DIRECTION ( 'NONE',  ( 0.000000000000000000, 0.000000000000000000, 1.000000000000000000 ) ) ;
#202 = LINE ( 'NONE', #483, #5 ) ;
#203 = DIRECTION ( 'NONE',  ( 1.000000000000000000, -0.000000000000000000, 0.000000000000000000 ) ) ;
#204 = DIRECTION ( 'NONE',  ( -1.000000000000000000, 0.000000000000000000, 0.000000000000000000 ) ) ;
#205 = CARTESIAN_POINT ( 'NONE',  ( 5.000000000000000000, 0.000000000000000000, 3.000000000000000000 ) ) ;
#206 = DIRECTION ( 'NONE',  ( -1.000000000000000000, -0.000000000000000000, -0.000000000000000000 ) ) ;
#207 = ORIENTED_EDGE ( 'NONE', *, *, #750, .T. ) ;
#208 = VECTOR ( 'NONE', #908, 1000.000000000000000 ) ;
#209 = CARTESIAN_POINT ( 'NONE',  ( 43.00000000000000000, 30.50000000000000355, 8.000000000000000000 ) ) ;
#210 = CARTESIAN_POINT ( 'NONE',  ( 5.000000000000000000, 5.000000000000000000, 3.000000000000000000 ) ) ;
#211 = VECTOR ( 'NONE', #1057, 1000.000000000000000 ) ;
#212 = ORIENTED_EDGE ( 'NONE', *, *, #460, .F. ) ;
#213 = DIRECTION ( 'NONE',  ( 0.000000000000000000, 0.000000000000000000, 1.000000000000000000 ) ) ;
#214 = CARTESIAN_POINT ( 'NONE',  ( 13.50000000000000711, 45.00000000000000000, 3.000000000000000000 ) ) ;
#215 = ORIENTED_EDGE ( 'NONE', *, *, #324, .T. ) ;
#216 = EDGE_CURVE ( 'NONE', #747, #595, #624, .T. ) ;
#217 = LINE ( 'NONE', #952, #555 ) ;
#218 = CARTESIAN_POINT ( 'NONE',  ( 5.999999999999994671, 15.50000000000001066, 8.000000000000000000 ) ) ;
#219 = ORIENTED_EDGE ( 'NONE', *, *, #1108, .F. ) ;
#220 = FACE_OUTER_BOUND ( 'NONE', #1028, .T. ) ;
#221 = ORIENTED_EDGE ( 'NONE', *, *, #563, .T. ) ;
#222 = PRODUCT_DEFINITION_SHAPE ( 'NONE', 'NONE',  #883 ) ;
#223 = CARTESIAN_POINT ( 'NONE',  ( 30.00000000000000000, 23.00000000000000000, 5.000000000000000000 ) ) ;
#224 = DIRECTION ( 'NONE',  ( 0.000000000000000000, 1.000000000000000000, 0.000000000000000000 ) ) ;
#225 = EDGE_CURVE ( 'NONE', #1070, #444, #96, .T. ) ;
#226 = DIRECTION ( 'NONE',  ( 1.000000000000000000, 0.000000000000000000, 0.000000000000000000 ) ) ;
#227 = ORIENTED_EDGE ( 'NONE', *, *, #271, .F. ) ;
#228 = CARTESIAN_POINT ( 'NONE',  ( 20.49999999999999645, 23.00000000000000000, 6.500000000000000888 ) ) ;
#229 = CARTESIAN_POINT ( 'NONE',  ( 13.50000000000000711, 43.00000000000000000, 3.000000000000000000 ) ) ;
#230 = AXIS2_PLACEMENT_3D ( 'NONE', #1036, #839, #127 ) ;
#231 = CARTESIAN_POINT ( 'NONE',  ( 22.99999999999999645, 23.00000000000000000, 5.000000000000000000 ) ) ;
#232 = CARTESIAN_POINT ( 'NONE',  ( 15.50000000000000711, 39.99999999999999289, 8.000000000000000000 ) ) ;
#233 =( BOUNDED_CURVE ( )  B_SPLINE_CURVE ( 3, ( #147, #133, #313, #596 ),
 .UNSPECIFIED., .F., .T. ) 
 B_SPLINE_CURVE_WITH_KNOTS ( ( 4, 4 ),
 ( 4.712388980384689674, 6.283185307179586232 ),
 .UNSPECIFIED. ) 
 CURVE ( )  GEOMETRIC_REPRESENTATION_ITEM ( )  RATIONAL_B_SPLINE_CURVE ( ( 1.000000000000000000, 0.8047378541243649375, 0.8047378541243649375, 1.000000000000000000 ) ) 
 REPRESENTATION_ITEM ( '' )  );
#234 = CARTESIAN_POINT ( 'NONE',  ( 0.000000000000000000, 0.000000000000000000, 0.000000000000000000 ) ) ;
#235 = VERTEX_POINT ( 'NONE', #815 ) ;
#236 = EDGE_CURVE ( 'NONE', #705, #17, #721, .T. ) ;
#237 = FACE_OUTER_BOUND ( 'NONE', #834, .T. ) ;
#238 = VECTOR ( 'NONE', #411, 1000.000000000000000 ) ;
#239 = LINE ( 'NONE', #958, #46 ) ;
#240 = ORIENTED_EDGE ( 'NONE', *, *, #879, .T. ) ;
#241 = DIRECTION ( 'NONE',  ( 0.000000000000000000, -0.000000000000000000, -1.000000000000000000 ) ) ;
#242 = ORIENTED_EDGE ( 'NONE', *, *, #701, .F. ) ;
#243 = CYLINDRICAL_SURFACE ( 'NONE', #1117, 5.000000000000000000 ) ;
#244 = CARTESIAN_POINT ( 'NONE',  ( 43.00000000000000000, 15.50000000000000355, 5.000000000000000000 ) ) ;
#245 = VERTEX_POINT ( 'NONE', #808 ) ;
#246 = PLANE ( 'NONE',  #606 ) ;
#247 = EDGE_CURVE ( 'NONE', #78, #891, #1082, .T. ) ;
#248 = VECTOR ( 'NONE', #646, 1000.000000000000000 ) ;
#249 = ORIENTED_EDGE ( 'NONE', *, *, #708, .T. ) ;
#250 = EDGE_CURVE ( 'NONE', #116, #351, #453, .T. ) ;
#251 = AXIS2_PLACEMENT_3D ( 'NONE', #210, #1126, #589 ) ;
#252 = ORIENTED_EDGE ( 'NONE', *, *, #990, .T. ) ;
#253 = CARTESIAN_POINT ( 'NONE',  ( 15.50000000000000711, 43.00000000000000000, 5.000000000000000000 ) ) ;
#254 = VERTEX_POINT ( 'NONE', #363 ) ;
#255 = CARTESIAN_POINT ( 'NONE',  ( 0.000000000000000000, 5.000000000000000000, 3.000000000000000000 ) ) ;
#256 = VECTOR ( 'NONE', #581, 1000.000000000000000 ) ;
#257 = CARTESIAN_POINT ( 'NONE',  ( 5.000000000000000000, 46.00000000000000000, 3.000000000000000000 ) ) ;
#258 = ADVANCED_FACE ( 'NONE', ( #237 ), #1114, .T. ) ;
#259 = LINE ( 'NONE', #6, #676 ) ;
#260 = ORIENTED_EDGE ( 'NONE', *, *, #250, .T. ) ;
#261 = VERTEX_POINT ( 'NONE', #50 ) ;
#262 = LINE ( 'NONE', #881, #322 ) ;
#263 = CARTESIAN_POINT ( 'NONE',  ( 20.49999999999999645, 23.00000000000000000, 5.000000000000000000 ) ) ;
#264 = CYLINDRICAL_SURFACE ( 'NONE', #1097, 4.999999999999997335 ) ;
#265 = VERTEX_POINT ( 'NONE', #214 ) ;
#266 = CARTESIAN_POINT ( 'NONE',  ( 5.999999999999994671, 15.50000000000001066, 5.000000000000000000 ) ) ;
#267 = ORIENTED_EDGE ( 'NONE', *, *, #38, .F. ) ;
#268 = ORIENTED_EDGE ( 'NONE', *, *, #500, .T. ) ;
#269 = CARTESIAN_POINT ( 'NONE',  ( 32.50000000000000711, 39.99999999999999289, 3.000000000000000000 ) ) ;
#270 = DIRECTION ( 'NONE',  ( 1.000000000000000000, 0.000000000000000000, -0.000000000000000000 ) ) ;
#271 = EDGE_CURVE ( 'NONE', #670, #705, #574, .T. ) ;
#272 = VECTOR ( 'NONE', #682, 1000.000000000000000 ) ;
#273 = DIRECTION ( 'NONE',  ( 0.000000000000000000, 0.000000000000000000, -1.000000000000000000 ) ) ;
#274 = CARTESIAN_POINT ( 'NONE',  ( 15.50000000000000711, 39.99999999999999289, 8.000000000000000000 ) ) ;
#275 = CARTESIAN_POINT ( 'NONE',  ( 40.00000000000000000, 13.50000000000000355, 5.000000000000000000 ) ) ;
#276 = EDGE_LOOP ( 'NONE', ( #159, #318, #1168, #1059 ) ) ;
#277 = FACE_BOUND ( 'NONE', #276, .T. ) ;
#278 = ORIENTED_EDGE ( 'NONE', *, *, #339, .F. ) ;
#279 = CARTESIAN_POINT ( 'NONE',  ( 15.50000000000000711, 39.99999999999999289, 5.000000000000000000 ) ) ;
#280 = EDGE_CURVE ( 'NONE', #72, #146, #129, .T. ) ;
#281 = CARTESIAN_POINT ( 'NONE',  ( 0.000000000000000000, 0.000000000000000000, 0.000000000000000000 ) ) ;
#282 = ADVANCED_FACE ( 'NONE', ( #39 ), #402, .F. ) ;
#283 = AXIS2_PLACEMENT_3D ( 'NONE', #274, #520, #93 ) ;
#284 = LINE ( 'NONE', #556, #489 ) ;
#285 = ORIENTED_EDGE ( 'NONE', *, *, #792, .T. ) ;
#286 = AXIS2_PLACEMENT_3D ( 'NONE', #232, #139, #503 ) ;
#287 = CARTESIAN_POINT ( 'NONE',  ( 30.50000000000000711, 43.00000000000000000, 8.000000000000000000 ) ) ;
#288 = ORIENTED_EDGE ( 'NONE', *, *, #526, .T. ) ;
#289 = LINE ( 'NONE', #838, #928 ) ;
#290 = CIRCLE ( 'NONE', #494, 2.499999999999998668 ) ;
#291 = EDGE_CURVE ( 'NONE', #670, #265, #1031, .T. ) ;
#292 = DIRECTION ( 'NONE',  ( -1.000000000000000000, 0.000000000000000000, -0.000000000000000000 ) ) ;
#293 = ORIENTED_EDGE ( 'NONE', *, *, #990, .F. ) ;
#294 = ORIENTED_EDGE ( 'NONE', *, *, #904, .T. ) ;
#295 = CARTESIAN_POINT ( 'NONE',  ( 45.99999999999999289, 41.00000000000000000, 3.000000000000000000 ) ) ;
#296 = CARTESIAN_POINT ( 'NONE',  ( 2.999999999999994227, 15.50000000000001066, 8.000000000000000000 ) ) ;
#297 = EDGE_CURVE ( 'NONE', #725, #72, #1006, .T. ) ;
#298 = CARTESIAN_POINT ( 'NONE',  ( 13.50000000000000711, 39.99999999999999289, 5.000000000000000000 ) ) ;
#299 = EDGE_LOOP ( 'NONE', ( #735, #907, #591, #637 ) ) ;
#300 = ORIENTED_EDGE ( 'NONE', *, *, #1002, .F. ) ;
#301 = DIRECTION ( 'NONE',  ( -0.000000000000000000, -0.000000000000000000, -1.000000000000000000 ) ) ;
#302 = CARTESIAN_POINT ( 'NONE',  ( 2.999999999999992895, 30.50000000000001066, 8.000000000000000000 ) ) ;
#303 = ORIENTED_EDGE ( 'NONE', *, *, #1001, .T. ) ;
#304 = EDGE_CURVE ( 'NONE', #875, #880, #763, .T. ) ;
#305 = LINE ( 'NONE', #1026, #238 ) ;
#306 = CARTESIAN_POINT ( 'NONE',  ( 39.99999999999999289, 30.50000000000000355, 5.000000000000000000 ) ) ;
#307 = VERTEX_POINT ( 'NONE', #592 ) ;
#308 = CARTESIAN_POINT ( 'NONE',  ( 40.99999999999999289, 41.00000000000000000, 3.000000000000000000 ) ) ;
#309 = ORIENTED_EDGE ( 'NONE', *, *, #80, .T. ) ;
#310 = CARTESIAN_POINT ( 'NONE',  ( 15.50000000000000711, 45.00000000000000000, 5.000000000000000000 ) ) ;
#311 = DIRECTION ( 'NONE',  ( -0.000000000000000000, -0.000000000000000000, 1.000000000000000000 ) ) ;
#312 = ORIENTED_EDGE ( 'NONE', *, *, #26, .F. ) ;
#313 = CARTESIAN_POINT ( 'NONE',  ( 42.99999999999999289, 30.50000000000000000, 3.828427124746190291 ) ) ;
#314 = DIRECTION ( 'NONE',  ( 0.000000000000000000, 0.000000000000000000, -1.000000000000000000 ) ) ;
#315 = CARTESIAN_POINT ( 'NONE',  ( 43.00000000000000000, 30.50000000000000355, 5.000000000000000000 ) ) ;
#316 = DIRECTION ( 'NONE',  ( 0.000000000000000000, 1.000000000000000000, 0.000000000000000000 ) ) ;
#317 = ADVANCED_FACE ( 'NONE', ( #654 ), #1018, .F. ) ;
#318 = ORIENTED_EDGE ( 'NONE', *, *, #60, .F. ) ;
#319 = ORIENTED_EDGE ( 'NONE', *, *, #764, .F. ) ;
#320 = AXIS2_PLACEMENT_3D ( 'NONE', #469, #821, #24 ) ;
#321 = CARTESIAN_POINT ( 'NONE',  ( 5.000000000000000000, 41.00000000000000000, 3.000000000000000000 ) ) ;
#322 = VECTOR ( 'NONE', #1051, 1000.000000000000000 ) ;
#323 = CARTESIAN_POINT ( 'NONE',  ( 40.99999999999999289, 46.00000000000000000, 0.000000000000000000 ) ) ;
#324 = EDGE_CURVE ( 'NONE', #541, #590, #1039, .T. ) ;
#325 = CARTESIAN_POINT ( 'NONE',  ( 0.000000000000000000, 0.000000000000000000, 8.000000000000000000 ) ) ;
#326 = ORIENTED_EDGE ( 'NONE', *, *, #60, .T. ) ;
#327 = AXIS2_PLACEMENT_3D ( 'NONE', #820, #59, #404 ) ;
#328 = CARTESIAN_POINT ( 'NONE',  ( 22.99999999999999645, 23.00000000000000000, 6.500000000000000888 ) ) ;
#329 = LINE ( 'NONE', #153, #98 ) ;
#330 = ORIENTED_EDGE ( 'NONE', *, *, #1002, .T. ) ;
#331 = CARTESIAN_POINT ( 'NONE',  ( 31.32842712474619873, 43.82842712474619162, 3.000000000000000888 ) ) ;
#332 = ORIENTED_EDGE ( 'NONE', *, *, #1069, .T. ) ;
#333 = EDGE_CURVE ( 'NONE', #862, #783, #132, .T. ) ;
#334 = FACE_OUTER_BOUND ( 'NONE', #761, .T. ) ;
#335 = EDGE_CURVE ( 'NONE', #725, #916, #196, .T. ) ;
#336 = DIRECTION ( 'NONE',  ( 0.000000000000000000, 0.000000000000000000, -1.000000000000000000 ) ) ;
#337 = EDGE_LOOP ( 'NONE', ( #445, #260, #19, #878 ) ) ;
#338 = VECTOR ( 'NONE', #301, 1000.000000000000000 ) ;
#339 = EDGE_CURVE ( 'NONE', #171, #355, #760, .T. ) ;
#340 = AXIS2_PLACEMENT_3D ( 'NONE', #949, #136, #396 ) ;
#341 = LINE ( 'NONE', #523, #535 ) ;
#342 = ORIENTED_EDGE ( 'NONE', *, *, #837, .F. ) ;
#343 = FACE_OUTER_BOUND ( 'NONE', #1080, .T. ) ;
#344 = ORIENTED_EDGE ( 'NONE', *, *, #439, .F. ) ;
#345 = DIRECTION ( 'NONE',  ( 0.000000000000000000, -1.000000000000000000, -0.000000000000000000 ) ) ;
#346 = AXIS2_PLACEMENT_3D ( 'NONE', #281, #10, #1111 ) ;
#347 = DIRECTION ( 'NONE',  ( 1.000000000000000000, 0.000000000000000000, 0.000000000000000000 ) ) ;
#348 = FACE_OUTER_BOUND ( 'NONE', #32, .T. ) ;
#349 = ORIENTED_EDGE ( 'NONE', *, *, #143, .T. ) ;
#350 = CARTESIAN_POINT ( 'NONE',  ( 2.999999999999992895, 30.50000000000001066, 5.000000000000000000 ) ) ;
#351 = VERTEX_POINT ( 'NONE', #306 ) ;
#352 = DIRECTION ( 'NONE',  ( 0.000000000000000000, 0.000000000000000000, 1.000000000000000000 ) ) ;
#353 = CARTESIAN_POINT ( 'NONE',  ( 45.00000000000000711, 30.50000000000000355, 5.000000000000000000 ) ) ;
#354 = EDGE_CURVE ( 'NONE', #861, #788, #496, .T. ) ;
#355 = VERTEX_POINT ( 'NONE', #1047 ) ;
#356 = CARTESIAN_POINT ( 'NONE',  ( 40.99999999999999289, 5.000000000000000000, 3.000000000000000000 ) ) ;
#357 = PLANE ( 'NONE',  #473 ) ;
#358 = EDGE_LOOP ( 'NONE', ( #1167, #855, #664, #278 ) ) ;
#359 = VECTOR ( 'NONE', #424, 1000.000000000000000 ) ;
#360 = DIRECTION ( 'NONE',  ( 0.000000000000000000, 0.000000000000000000, 1.000000000000000000 ) ) ;
#361 = CARTESIAN_POINT ( 'NONE',  ( 40.99999999999999289, 41.00000000000000000, 3.000000000000000000 ) ) ;
#362 = VECTOR ( 'NONE', #1046, 1000.000000000000000 ) ;
#363 = CARTESIAN_POINT ( 'NONE',  ( 40.99999999999999289, 0.000000000000000000, 0.000000000000000000 ) ) ;
#364 = CARTESIAN_POINT ( 'NONE',  ( 2.999999999999992895, 30.50000000000001066, 5.000000000000000000 ) ) ;
#365 = LINE ( 'NONE', #623, #208 ) ;
#366 = VERTEX_POINT ( 'NONE', #675 ) ;
#367 = ADVANCED_FACE ( 'NONE', ( #594 ), #43, .F. ) ;
#368 = APPLICATION_PROTOCOL_DEFINITION ( 'draft international standard', 'automotive_design', 1998, #486 ) ;
#369 = FACE_OUTER_BOUND ( 'NONE', #447, .T. ) ;
#370 = VERTEX_POINT ( 'NONE', #833 ) ;
#371 = VERTEX_POINT ( 'NONE', #391 ) ;
#372 = LINE ( 'NONE', #266, #890 ) ;
#373 = ORIENTED_EDGE ( 'NONE', *, *, #198, .T. ) ;
#374 = CARTESIAN_POINT ( 'NONE',  ( 2.999999999999994227, 15.50000000000001066, 8.000000000000000000 ) ) ;
#375 = EDGE_CURVE ( 'NONE', #156, #875, #1062, .T. ) ;
#376 = APPLICATION_PROTOCOL_DEFINITION ( 'draft international standard', 'automotive_design', 1998, #803 ) ;
#377 = DIRECTION ( 'NONE',  ( -1.000000000000000000, 0.000000000000000000, 0.000000000000000000 ) ) ;
#378 = AXIS2_PLACEMENT_3D ( 'NONE', #223, #45, #580 ) ;
#379 = ORIENTED_EDGE ( 'NONE', *, *, #1134, .T. ) ;
#380 = CARTESIAN_POINT ( 'NONE',  ( 45.99999999999999289, 41.00000000000000000, 0.000000000000000000 ) ) ;
#381 = CARTESIAN_POINT ( 'NONE',  ( 40.99999999999999289, 5.000000000000000000, 0.000000000000000000 ) ) ;
#382 = ADVANCED_FACE ( 'NONE', ( #953 ), #1041, .F. ) ;
#383 = AXIS2_PLACEMENT_3D ( 'NONE', #66, #530, #997 ) ;
#384 = LINE ( 'NONE', #1014, #1058 ) ;
#385 = ORIENTED_EDGE ( 'NONE', *, *, #1050, .T. ) ;
#386 = ORIENTED_EDGE ( 'NONE', *, *, #717, .T. ) ;
#387 = LINE ( 'NONE', #1029, #359 ) ;
#388 = ORIENTED_EDGE ( 'NONE', *, *, #476, .F. ) ;
#389 = ORIENTED_EDGE ( 'NONE', *, *, #225, .F. ) ;
#390 = LINE ( 'NONE', #27, #840 ) ;
#391 = CARTESIAN_POINT ( 'NONE',  ( 40.00000000000000000, 15.50000000000000355, 5.000000000000000000 ) ) ;
#392 = EDGE_CURVE ( 'NONE', #856, #1157, #794, .T. ) ;
#393 = DIRECTION ( 'NONE',  ( -0.000000000000000000, -1.000000000000000000, -0.000000000000000000 ) ) ;
#394 = ORIENTED_EDGE ( 'NONE', *, *, #536, .T. ) ;
#395 = CARTESIAN_POINT ( 'NONE',  ( 25.49999999999999645, 23.00000000000000000, 6.500000000000000888 ) ) ;
#396 = DIRECTION ( 'NONE',  ( 1.000000000000000000, 0.000000000000000000, 0.000000000000000000 ) ) ;
#397 = VECTOR ( 'NONE', #825, 1000.000000000000000 ) ;
#398 = CIRCLE ( 'NONE', #511, 2.499999999999998668 ) ;
#399 = DIRECTION ( 'NONE',  ( 1.156482317317871478E-16, -1.000000000000000000, 0.000000000000000000 ) ) ;
#400 = EDGE_LOOP ( 'NONE', ( #887, #597, #954, #300, #142, #827 ) ) ;
#401 = LINE ( 'NONE', #692, #1156 ) ;
#402 = CYLINDRICAL_SURFACE ( 'NONE', #640, 2.000000000000000000 ) ;
#403 = VECTOR ( 'NONE', #144, 1000.000000000000000 ) ;
#404 = DIRECTION ( 'NONE',  ( -1.000000000000000000, 0.000000000000000000, 0.000000000000000000 ) ) ;
#405 = ORIENTED_EDGE ( 'NONE', *, *, #392, .T. ) ;
#406 = DIRECTION ( 'NONE',  ( 0.000000000000000000, 0.000000000000000000, 1.000000000000000000 ) ) ;
#407 = CARTESIAN_POINT ( 'NONE',  ( 5.000000000000000000, 0.000000000000000000, 3.000000000000000000 ) ) ;
#408 = EDGE_CURVE ( 'NONE', #171, #444, #68, .T. ) ;
#409 = EDGE_CURVE ( 'NONE', #544, #254, #549, .T. ) ;
#410 = FACE_OUTER_BOUND ( 'NONE', #169, .T. ) ;
#411 = DIRECTION ( 'NONE',  ( 1.000000000000000000, 0.000000000000000000, 0.000000000000000000 ) ) ;
#412 = FILL_AREA_STYLE_COLOUR ( '', #191 ) ;
#413 = ADVANCED_FACE ( 'NONE', ( #573 ), #36, .F. ) ;
#414 = CARTESIAN_POINT ( 'NONE',  ( 22.99999999999999645, 23.00000000000000000, 5.000000000000000000 ) ) ;
#415 = EDGE_LOOP ( 'NONE', ( #634, #1144, #975, #546 ) ) ;
#416 = CARTESIAN_POINT ( 'NONE',  ( 22.99999999999999645, 23.00000000000000000, 3.000000000000000000 ) ) ;
#417 = EDGE_LOOP ( 'NONE', ( #619, #167, #438, #163 ) ) ;
#418 = AXIS2_PLACEMENT_3D ( 'NONE', #992, #703, #1158 ) ;
#419 = FACE_OUTER_BOUND ( 'NONE', #730, .T. ) ;
#420 = AXIS2_PLACEMENT_3D ( 'NONE', #854, #488, #123 ) ;
#421 = PLANE ( 'NONE',  #627 ) ;
#422 = CARTESIAN_POINT ( 'NONE',  ( 5.000000000000000000, 41.00000000000000000, 3.000000000000000000 ) ) ;
#423 =( BOUNDED_CURVE ( )  B_SPLINE_CURVE ( 3, ( #1040, #514, #842, #138 ),
 .UNSPECIFIED., .F., .T. ) 
 B_SPLINE_CURVE_WITH_KNOTS ( ( 4, 4 ),
 ( 1.570796326794896558, 3.141592653589793116 ),
 .UNSPECIFIED. ) 
 CURVE ( )  GEOMETRIC_REPRESENTATION_ITEM ( )  RATIONAL_B_SPLINE_CURVE ( ( 1.000000000000000000, 0.8047378541243649375, 0.8047378541243649375, 1.000000000000000000 ) ) 
 REPRESENTATION_ITEM ( '' )  );
#424 = DIRECTION ( 'NONE',  ( 1.000000000000000000, 0.000000000000000000, 0.000000000000000000 ) ) ;
#425 = AXIS2_PLACEMENT_3D ( 'NONE', #537, #799, #612 ) ;
#426 = ORIENTED_EDGE ( 'NONE', *, *, #35, .F. ) ;
#427 = DIRECTION ( 'NONE',  ( 0.000000000000000000, -0.000000000000000000, -1.000000000000000000 ) ) ;
#428 = CARTESIAN_POINT ( 'NONE',  ( 40.00000000000000000, 13.50000000000000355, 5.000000000000000000 ) ) ;
#429 = LINE ( 'NONE', #579, #720 ) ;
#430 = CARTESIAN_POINT ( 'NONE',  ( 43.00000000000000000, 30.50000000000000355, 8.000000000000000000 ) ) ;
#431 = ORIENTED_EDGE ( 'NONE', *, *, #948, .F. ) ;
#432 = EDGE_CURVE ( 'NONE', #355, #1070, #652, .T. ) ;
#433 = CARTESIAN_POINT ( 'NONE',  ( 32.50000000000000711, 39.99999999999999289, 3.000000000000000000 ) ) ;
#434 = DIRECTION ( 'NONE',  ( 0.000000000000000000, 0.000000000000000000, 1.000000000000000000 ) ) ;
#435 = VERTEX_POINT ( 'NONE', #746 ) ;
#436 = DIRECTION ( 'NONE',  ( -0.000000000000000000, -0.000000000000000000, -1.000000000000000000 ) ) ;
#437 = EDGE_LOOP ( 'NONE', ( #648, #1019, #655, #1159 ) ) ;
#438 = ORIENTED_EDGE ( 'NONE', *, *, #717, .F. ) ;
#439 = EDGE_CURVE ( 'NONE', #590, #541, #290, .T. ) ;
#440 = AXIS2_PLACEMENT_3D ( 'NONE', #922, #201, #270 ) ;
#441 = VECTOR ( 'NONE', #818, 1000.000000000000000 ) ;
#442 = DIRECTION ( 'NONE',  ( 0.000000000000000000, -1.000000000000000000, 0.000000000000000000 ) ) ;
#443 = DIRECTION ( 'NONE',  ( 0.000000000000000000, -1.000000000000000000, 0.000000000000000000 ) ) ;
#444 = VERTEX_POINT ( 'NONE', #562 ) ;
#445 = ORIENTED_EDGE ( 'NONE', *, *, #888, .T. ) ;
#446 = CIRCLE ( 'NONE', #933, 5.000000000000000000 ) ;
#447 = EDGE_LOOP ( 'NONE', ( #23, #112, #221, #995, #140, #455, #603, #149 ) ) ;
#448 = ADVANCED_FACE ( 'NONE', ( #1121 ), #117, .F. ) ;
#449 = CYLINDRICAL_SURFACE ( 'NONE', #425, 2.000000000000000000 ) ;
#450 = CARTESIAN_POINT ( 'NONE',  ( 13.50000000000000711, 39.99999999999999289, 3.000000000000000000 ) ) ;
#451 = DIRECTION ( 'NONE',  ( 0.000000000000000000, 0.000000000000000000, -1.000000000000000000 ) ) ;
#452 = VERTEX_POINT ( 'NONE', #1113 ) ;
#453 = LINE ( 'NONE', #714, #737 ) ;
#454 =( NAMED_UNIT ( * ) PLANE_ANGLE_UNIT ( ) SI_UNIT ( $, .RADIAN. ) );
#455 = ORIENTED_EDGE ( 'NONE', *, *, #247, .T. ) ;
#456 = DIRECTION ( 'NONE',  ( 0.000000000000000000, 0.000000000000000000, -1.000000000000000000 ) ) ;
#457 = DIRECTION ( 'NONE',  ( 0.000000000000000000, -0.000000000000000000, 1.000000000000000000 ) ) ;
#458 = AXIS2_PLACEMENT_3D ( 'NONE', #1077, #443, #545 ) ;
#459 = VECTOR ( 'NONE', #848, 1000.000000000000000 ) ;
#460 = EDGE_CURVE ( 'NONE', #561, #452, #946, .T. ) ;
#461 = CARTESIAN_POINT ( 'NONE',  ( 5.000000000000000000, 5.000000000000000000, 0.000000000000000000 ) ) ;
#462 = DIRECTION ( 'NONE',  ( 0.000000000000000000, 0.000000000000000000, 1.000000000000000000 ) ) ;
#463 = DIRECTION ( 'NONE',  ( -0.000000000000000000, -0.000000000000000000, -1.000000000000000000 ) ) ;
#464 = EDGE_LOOP ( 'NONE', ( #602, #656, #1075, #1053 ) ) ;
#465 = LINE ( 'NONE', #1016, #1160 ) ;
#466 = EDGE_CURVE ( 'NONE', #595, #670, #641, .T. ) ;
#467 = CARTESIAN_POINT ( 'NONE',  ( 15.99999999999999289, 23.00000000000000000, 3.000000000000000000 ) ) ;
#468 = ORIENTED_EDGE ( 'NONE', *, *, #107, .T. ) ;
#469 = CARTESIAN_POINT ( 'NONE',  ( 39.99999999999999289, 32.50000000000000000, 5.000000000000000000 ) ) ;
#470 = FACE_OUTER_BOUND ( 'NONE', #165, .T. ) ;
#471 = VECTOR ( 'NONE', #539, 1000.000000000000000 ) ;
#472 = LINE ( 'NONE', #30, #397 ) ;
#473 = AXIS2_PLACEMENT_3D ( 'NONE', #630, #184, #457 ) ;
#474 = ORIENTED_EDGE ( 'NONE', *, *, #432, .T. ) ;
#475 = LINE ( 'NONE', #120, #884 ) ;
#476 = EDGE_CURVE ( 'NONE', #942, #798, #465, .T. ) ;
#477 = VECTOR ( 'NONE', #1150, 1000.000000000000000 ) ;
#478 = CARTESIAN_POINT ( 'NONE',  ( 5.999999999999992895, 30.50000000000001066, 8.000000000000000000 ) ) ;
#479 = DIRECTION ( 'NONE',  ( -4.625929269271485914E-16, 1.000000000000000000, 0.000000000000000000 ) ) ;
#480 = DIRECTION ( 'NONE',  ( 0.000000000000000000, -0.000000000000000000, -1.000000000000000000 ) ) ;
#481 = CARTESIAN_POINT ( 'NONE',  ( 0.000000000000000000, 5.000000000000000000, 0.000000000000000000 ) ) ;
#482 = PRODUCT ( '\X2\30ed30fc30c930bb30eb30e630cb30c330c85929677f\X0\', '\X2\30ed30fc30c930bb30eb30e630cb30c330c85929677f\X0\', '', ( #830 ) ) ;
#483 = CARTESIAN_POINT ( 'NONE',  ( 30.50000000000000711, 39.99999999999999289, 8.000000000000000000 ) ) ;
#484 = EDGE_LOOP ( 'NONE', ( #268, #309, #583, #124 ) ) ;
#485 = DIRECTION ( 'NONE',  ( 1.000000000000000000, 0.000000000000000000, 0.000000000000000000 ) ) ;
#486 = APPLICATION_CONTEXT ( 'automotive_design' ) ;
#487 = LINE ( 'NONE', #593, #65 ) ;
#488 = DIRECTION ( 'NONE',  ( 0.000000000000000000, 0.000000000000000000, -1.000000000000000000 ) ) ;
#489 = VECTOR ( 'NONE', #935, 1000.000000000000000 ) ;
#490 = CARTESIAN_POINT ( 'NONE',  ( 13.50000000000000711, 39.99999999999999289, 5.000000000000000000 ) ) ;
#491 = VECTOR ( 'NONE', #724, 1000.000000000000000 ) ;
#492 = EDGE_CURVE ( 'NONE', #554, #78, #733, .T. ) ;
#493 = DIRECTION ( 'NONE',  ( -0.000000000000000000, 1.000000000000000000, -0.000000000000000000 ) ) ;
#494 = AXIS2_PLACEMENT_3D ( 'NONE', #567, #931, #1024 ) ;
#495 = CYLINDRICAL_SURFACE ( 'NONE', #971, 2.000000000000000000 ) ;
#496 = LINE ( 'NONE', #218, #459 ) ;
#497 = SURFACE_SIDE_STYLE ('',( #966 ) ) ;
#498 = ORIENTED_EDGE ( 'NONE', *, *, #7, .T. ) ;
#499 = DIRECTION ( 'NONE',  ( 0.000000000000000000, 0.000000000000000000, -1.000000000000000000 ) ) ;
#500 = EDGE_CURVE ( 'NONE', #861, #796, #1013, .T. ) ;
#501 = LINE ( 'NONE', #51, #1135 ) ;
#502 = DIRECTION ( 'NONE',  ( 0.000000000000000000, 0.000000000000000000, -1.000000000000000000 ) ) ;
#503 = DIRECTION ( 'NONE',  ( 0.000000000000000000, -0.000000000000000000, 1.000000000000000000 ) ) ;
#504 = ORIENTED_EDGE ( 'NONE', *, *, #392, .F. ) ;
#505 = DIRECTION ( 'NONE',  ( 1.000000000000000000, 0.000000000000000000, -0.000000000000000000 ) ) ;
#506 = ADVANCED_FACE ( 'NONE', ( #1098 ), #740, .T. ) ;
#507 = CARTESIAN_POINT ( 'NONE',  ( 40.99999999999999289, 0.000000000000000000, 3.000000000000000000 ) ) ;
#508 = ORIENTED_EDGE ( 'NONE', *, *, #837, .T. ) ;
#509 = DIRECTION ( 'NONE',  ( 0.000000000000000000, 0.000000000000000000, -1.000000000000000000 ) ) ;
#510 = ORIENTED_EDGE ( 'NONE', *, *, #1069, .F. ) ;
#511 = AXIS2_PLACEMENT_3D ( 'NONE', #811, #360, #168 ) ;
#512 = FACE_OUTER_BOUND ( 'NONE', #826, .T. ) ;
#513 = VECTOR ( 'NONE', #314, 1000.000000000000000 ) ;
#514 = CARTESIAN_POINT ( 'NONE',  ( 14.67157287525381726, 43.82842712474619162, 3.000000000000000888 ) ) ;
#515 = EDGE_CURVE ( 'NONE', #235, #796, #475, .T. ) ;
#516 =( LENGTH_UNIT ( ) NAMED_UNIT ( * ) SI_UNIT ( .MILLI., .METRE. ) );
#517 = PRODUCT_DEFINITION_FORMATION_WITH_SPECIFIED_SOURCE ( 'ANY', '', #482, .NOT_KNOWN. ) ;
#518 = ORIENTED_EDGE ( 'NONE', *, *, #80, .F. ) ;
#519 = PLANE ( 'NONE',  #1102 ) ;
#520 = DIRECTION ( 'NONE',  ( 1.000000000000000000, 0.000000000000000000, 0.000000000000000000 ) ) ;
#521 = ORIENTED_EDGE ( 'NONE', *, *, #1033, .F. ) ;
#522 = DIRECTION ( 'NONE',  ( 0.000000000000000000, 0.000000000000000000, -1.000000000000000000 ) ) ;
#523 = CARTESIAN_POINT ( 'NONE',  ( 40.00000000000000000, 15.50000000000000355, 8.000000000000000000 ) ) ;
#524 = CARTESIAN_POINT ( 'NONE',  ( 43.00000000000000000, 15.50000000000000355, 8.000000000000000000 ) ) ;
#525 = ORIENTED_EDGE ( 'NONE', *, *, #948, .T. ) ;
#526 = EDGE_CURVE ( 'NONE', #798, #1096, #927, .T. ) ;
#527 = AXIS2_PLACEMENT_3D ( 'NONE', #1163, #801, #998 ) ;
#528 = ORIENTED_EDGE ( 'NONE', *, *, #492, .F. ) ;
#529 = VECTOR ( 'NONE', #813, 1000.000000000000000 ) ;
#530 = DIRECTION ( 'NONE',  ( -1.156482317317871478E-16, 1.000000000000000000, 0.000000000000000000 ) ) ;
#531 = ORIENTED_EDGE ( 'NONE', *, *, #805, .F. ) ;
#532 = DIRECTION ( 'NONE',  ( 0.000000000000000000, 0.000000000000000000, -1.000000000000000000 ) ) ;
#533 = ORIENTED_EDGE ( 'NONE', *, *, #1020, .F. ) ;
#534 = DIRECTION ( 'NONE',  ( -1.000000000000000000, 0.000000000000000000, 0.000000000000000000 ) ) ;
#535 = VECTOR ( 'NONE', #702, 1000.000000000000000 ) ;
#536 = EDGE_CURVE ( 'NONE', #757, #909, #289, .T. ) ;
#537 = CARTESIAN_POINT ( 'NONE',  ( 32.50000000000000711, 39.99999999999999289, 5.000000000000000000 ) ) ;
#538 = VERTEX_POINT ( 'NONE', #302 ) ;
#539 = DIRECTION ( 'NONE',  ( -0.000000000000000000, -0.000000000000000000, -1.000000000000000000 ) ) ;
#540 = DIRECTION ( 'NONE',  ( -1.156482317317871478E-16, 1.000000000000000000, -0.000000000000000000 ) ) ;
#541 = VERTEX_POINT ( 'NONE', #749 ) ;
#542 = EDGE_CURVE ( 'NONE', #370, #84, #202, .T. ) ;
#543 = EDGE_CURVE ( 'NONE', #783, #366, #564, .T. ) ;
#544 = VERTEX_POINT ( 'NONE', #924 ) ;
#545 = DIRECTION ( 'NONE',  ( 0.000000000000000000, -0.000000000000000000, -1.000000000000000000 ) ) ;
#546 = ORIENTED_EDGE ( 'NONE', *, *, #280, .F. ) ;
#547 = DIRECTION ( 'NONE',  ( -1.156482317317871478E-16, 1.000000000000000000, -0.000000000000000000 ) ) ;
#548 = AXIS2_PLACEMENT_3D ( 'NONE', #356, #1071, #718 ) ;
#549 = CIRCLE ( 'NONE', #41, 4.999999999999997335 ) ;
#550 = EDGE_CURVE ( 'NONE', #351, #171, #1133, .T. ) ;
#551 = LINE ( 'NONE', #930, #1005 ) ;
#552 = LINE ( 'NONE', #189, #491 ) ;
#553 = CARTESIAN_POINT ( 'NONE',  ( 0.000000000000000000, 0.000000000000000000, 3.000000000000000000 ) ) ;
#554 = VERTEX_POINT ( 'NONE', #380 ) ;
#555 = VECTOR ( 'NONE', #669, 1000.000000000000000 ) ;
#556 = CARTESIAN_POINT ( 'NONE',  ( 39.99999999999999289, 30.50000000000000355, 8.000000000000000000 ) ) ;
#557 = ORIENTED_EDGE ( 'NONE', *, *, #852, .T. ) ;
#558 = DIRECTION ( 'NONE',  ( 0.000000000000000000, -1.000000000000000000, -0.000000000000000000 ) ) ;
#559 = EDGE_LOOP ( 'NONE', ( #744, #227, #1122, #373 ) ) ;
#560 = DIRECTION ( 'NONE',  ( 0.000000000000000000, 0.000000000000000000, -1.000000000000000000 ) ) ;
#561 = VERTEX_POINT ( 'NONE', #828 ) ;
#562 = CARTESIAN_POINT ( 'NONE',  ( 40.00000000000000000, 13.50000000000000355, 3.000000000000000000 ) ) ;
#563 = EDGE_CURVE ( 'NONE', #875, #177, #387, .T. ) ;
#564 = CIRCLE ( 'NONE', #1056, 2.000000000000001776 ) ;
#565 = CARTESIAN_POINT ( 'NONE',  ( 5.000000000000000000, 0.000000000000000000, 0.000000000000000000 ) ) ;
#566 = VECTOR ( 'NONE', #903, 1000.000000000000000 ) ;
#567 = CARTESIAN_POINT ( 'NONE',  ( 22.99999999999999645, 23.00000000000000000, 6.500000000000000888 ) ) ;
#568 = ORIENTED_EDGE ( 'NONE', *, *, #1094, .F. ) ;
#569 = DIRECTION ( 'NONE',  ( 1.000000000000000000, 0.000000000000000000, 0.000000000000000000 ) ) ;
#570 = ORIENTED_EDGE ( 'NONE', *, *, #291, .F. ) ;
#571 = AXIS2_PLACEMENT_3D ( 'NONE', #231, #663, #226 ) ;
#572 = FACE_BOUND ( 'NONE', #773, .T. ) ;
#573 = FACE_OUTER_BOUND ( 'NONE', #950, .T. ) ;
#574 = LINE ( 'NONE', #667, #774 ) ;
#575 = EDGE_LOOP ( 'NONE', ( #1015, #1110, #83, #134 ) ) ;
#576 = CARTESIAN_POINT ( 'NONE',  ( 5.999999999999992895, 30.50000000000001066, 8.000000000000000000 ) ) ;
#577 = ADVANCED_FACE ( 'NONE', ( #1043 ), #871, .F. ) ;
#578 = CARTESIAN_POINT ( 'NONE',  ( 39.99999999999999289, 30.50000000000000355, 8.000000000000000000 ) ) ;
#579 = CARTESIAN_POINT ( 'NONE',  ( 2.999999999999994227, 13.50000000000001066, 3.000000000000000000 ) ) ;
#580 = DIRECTION ( 'NONE',  ( -1.000000000000000000, 0.000000000000000000, 0.000000000000000000 ) ) ;
#581 = DIRECTION ( 'NONE',  ( -0.000000000000000000, -0.000000000000000000, -1.000000000000000000 ) ) ;
#582 = MECHANICAL_DESIGN_GEOMETRIC_PRESENTATION_REPRESENTATION (  '', ( #1021 ), #694 ) ;
#583 = ORIENTED_EDGE ( 'NONE', *, *, #119, .F. ) ;
#584 = ADVANCED_FACE ( 'NONE', ( #220 ), #671, .F. ) ;
#585 = DIRECTION ( 'NONE',  ( -1.000000000000000000, 0.000000000000000000, 0.000000000000000000 ) ) ;
#586 = AXIS2_PLACEMENT_3D ( 'NONE', #866, #851, #427 ) ;
#587 = DIRECTION ( 'NONE',  ( 0.000000000000000000, 1.000000000000000000, -0.000000000000000000 ) ) ;
#588 = LINE ( 'NONE', #939, #362 ) ;
#589 = DIRECTION ( 'NONE',  ( -1.000000000000000000, 0.000000000000000000, 0.000000000000000000 ) ) ;
#590 = VERTEX_POINT ( 'NONE', #228 ) ;
#591 = ORIENTED_EDGE ( 'NONE', *, *, #1055, .F. ) ;
#592 = CARTESIAN_POINT ( 'NONE',  ( 25.49999999999999645, 23.00000000000000000, 5.000000000000000000 ) ) ;
#593 = CARTESIAN_POINT ( 'NONE',  ( 15.50000000000000711, 39.99999999999999289, 8.000000000000000000 ) ) ;
#594 = FACE_OUTER_BOUND ( 'NONE', #616, .T. ) ;
#595 = VERTEX_POINT ( 'NONE', #845 ) ;
#596 = CARTESIAN_POINT ( 'NONE',  ( 43.00000000000000000, 30.50000000000000355, 5.000000000000000000 ) ) ;
#597 = ORIENTED_EDGE ( 'NONE', *, *, #236, .T. ) ;
#598 = DIRECTION ( 'NONE',  ( -1.000000000000000000, 0.000000000000000000, 0.000000000000000000 ) ) ;
#599 = ADVANCED_FACE ( 'NONE', ( #766 ), #1035, .F. ) ;
#600 = DIRECTION ( 'NONE',  ( -1.000000000000000000, -1.156482317317871478E-16, 0.000000000000000000 ) ) ;
#601 = CARTESIAN_POINT ( 'NONE',  ( 30.50000000000000711, 43.00000000000000000, 5.000000000000000000 ) ) ;
#602 = ORIENTED_EDGE ( 'NONE', *, *, #543, .F. ) ;
#603 = ORIENTED_EDGE ( 'NONE', *, *, #869, .T. ) ;
#604 = AXIS2_PLACEMENT_3D ( 'NONE', #642, #118, #462 ) ;
#605 = CARTESIAN_POINT ( 'NONE',  ( 0.000000000000000000, 0.000000000000000000, 8.000000000000000000 ) ) ;
#606 = AXIS2_PLACEMENT_3D ( 'NONE', #605, #157, #734 ) ;
#607 = EDGE_LOOP ( 'NONE', ( #644, #557, #1072, #608 ) ) ;
#608 = ORIENTED_EDGE ( 'NONE', *, *, #354, .T. ) ;
#609 = FACE_OUTER_BOUND ( 'NONE', #415, .T. ) ;
#610 = ORIENTED_EDGE ( 'NONE', *, *, #297, .T. ) ;
#611 = ADVANCED_FACE ( 'NONE', ( #947 ), #54, .T. ) ;
#612 = DIRECTION ( 'NONE',  ( 0.000000000000000000, 0.000000000000000000, -1.000000000000000000 ) ) ;
#613 = EDGE_CURVE ( 'NONE', #355, #116, #233, .T. ) ;
#614 = ORIENTED_EDGE ( 'NONE', *, *, #304, .F. ) ;
#615 = LINE ( 'NONE', #710, #943 ) ;
#616 = EDGE_LOOP ( 'NONE', ( #1049, #468, #1131, #85, #349, #638 ) ) ;
#617 = ORIENTED_EDGE ( 'NONE', *, *, #699, .F. ) ;
#618 = MANIFOLD_SOLID_BREP ( 'ﾌｨﾚｯﾄ3', #40 ) ;
#619 = ORIENTED_EDGE ( 'NONE', *, *, #1078, .T. ) ;
#620 = PLANE ( 'NONE',  #458 ) ;
#621 = ORIENTED_EDGE ( 'NONE', *, *, #408, .F. ) ;
#622 = EDGE_CURVE ( 'NONE', #452, #1151, #429, .T. ) ;
#623 = CARTESIAN_POINT ( 'NONE',  ( 40.99999999999999289, 46.00000000000000000, 3.000000000000000000 ) ) ;
#624 = LINE ( 'NONE', #279, #968 ) ;
#625 = VECTOR ( 'NONE', #1085, 1000.000000000000000 ) ;
#626 = ADVANCED_BREP_SHAPE_REPRESENTATION ( '\X2\30ed30fc30c930bb30eb30e630cb30c330c85929677f\X0\', ( #618, #346 ), #137 ) ;
#627 = AXIS2_PLACEMENT_3D ( 'NONE', #576, #600, #938 ) ;
#628 = PRODUCT_RELATED_PRODUCT_CATEGORY ( 'part', '', ( #482 ) ) ;
#629 = DIRECTION ( 'NONE',  ( 1.000000000000000000, 0.000000000000000000, 0.000000000000000000 ) ) ;
#630 = CARTESIAN_POINT ( 'NONE',  ( 40.00000000000000000, 15.50000000000000355, 8.000000000000000000 ) ) ;
#631 = ORIENTED_EDGE ( 'NONE', *, *, #185, .T. ) ;
#632 = CYLINDRICAL_SURFACE ( 'NONE', #527, 5.000000000000000000 ) ;
#633 = LINE ( 'NONE', #194, #193 ) ;
#634 = ORIENTED_EDGE ( 'NONE', *, *, #297, .F. ) ;
#635 = EDGE_CURVE ( 'NONE', #916, #725, #1038, .T. ) ;
#636 = CARTESIAN_POINT ( 'NONE',  ( 15.50000000000000711, 39.99999999999999289, 8.000000000000000000 ) ) ;
#637 = ORIENTED_EDGE ( 'NONE', *, *, #432, .F. ) ;
#638 = ORIENTED_EDGE ( 'NONE', *, *, #550, .T. ) ;
#639 = CIRCLE ( 'NONE', #327, 5.000000000000000000 ) ;
#640 = AXIS2_PLACEMENT_3D ( 'NONE', #310, #569, #499 ) ;
#641 = CIRCLE ( 'NONE', #1100, 2.000000000000000000 ) ;
#642 = CARTESIAN_POINT ( 'NONE',  ( 30.50000000000000711, 39.99999999999999289, 8.000000000000000000 ) ) ;
#643 = CARTESIAN_POINT ( 'NONE',  ( 2.999999999999992450, 30.50000000000000355, 3.828427124746190291 ) ) ;
#644 = ORIENTED_EDGE ( 'NONE', *, *, #38, .T. ) ;
#645 = DIRECTION ( 'NONE',  ( -0.000000000000000000, -0.000000000000000000, 1.000000000000000000 ) ) ;
#646 = DIRECTION ( 'NONE',  ( -1.000000000000000000, 0.000000000000000000, 0.000000000000000000 ) ) ;
#647 = EDGE_CURVE ( 'NONE', #967, #1030, #1116, .T. ) ;
#648 = ORIENTED_EDGE ( 'NONE', *, *, #236, .F. ) ;
#649 = DIRECTION ( 'NONE',  ( 0.000000000000000000, -1.000000000000000000, 0.000000000000000000 ) ) ;
#650 = LINE ( 'NONE', #478, #248 ) ;
#651 = ORIENTED_EDGE ( 'NONE', *, *, #1055, .T. ) ;
#652 = LINE ( 'NONE', #665, #1007 ) ;
#653 = ORIENTED_EDGE ( 'NONE', *, *, #466, .F. ) ;
#654 = FACE_OUTER_BOUND ( 'NONE', #484, .T. ) ;
#655 = ORIENTED_EDGE ( 'NONE', *, *, #647, .T. ) ;
#656 = ORIENTED_EDGE ( 'NONE', *, *, #333, .F. ) ;
#657 = VECTOR ( 'NONE', #743, 1000.000000000000000 ) ;
#658 = CARTESIAN_POINT ( 'NONE',  ( 40.99999999999999289, 41.00000000000000000, 0.000000000000000000 ) ) ;
#659 = VECTOR ( 'NONE', #753, 1000.000000000000000 ) ;
#660 = DIRECTION ( 'NONE',  ( -1.000000000000000000, -1.156482317317871478E-16, 0.000000000000000000 ) ) ;
#661 = ADVANCED_FACE ( 'NONE', ( #154 ), #941, .F. ) ;
#662 = ADVANCED_FACE ( 'NONE', ( #762 ), #82, .F. ) ;
#663 = DIRECTION ( 'NONE',  ( 0.000000000000000000, 0.000000000000000000, 1.000000000000000000 ) ) ;
#664 = ORIENTED_EDGE ( 'NONE', *, *, #613, .F. ) ;
#665 = CARTESIAN_POINT ( 'NONE',  ( 45.00000000000000711, 15.50000000000000355, 3.000000000000000000 ) ) ;
#666 = EDGE_LOOP ( 'NONE', ( #394, #252, #521, #1140 ) ) ;
#667 = CARTESIAN_POINT ( 'NONE',  ( 15.50000000000000711, 39.99999999999999289, 3.000000000000000000 ) ) ;
#668 = ADVANCED_FACE ( 'NONE', ( #893 ), #620, .F. ) ;
#669 = DIRECTION ( 'NONE',  ( 1.000000000000000000, 0.000000000000000000, 0.000000000000000000 ) ) ;
#670 = VERTEX_POINT ( 'NONE', #450 ) ;
#671 = CYLINDRICAL_SURFACE ( 'NONE', #965, 2.000000000000000000 ) ;
#672 = ORIENTED_EDGE ( 'NONE', *, *, #107, .F. ) ;
#673 = CARTESIAN_POINT ( 'NONE',  ( 5.999999999999994671, 15.50000000000001066, 8.000000000000000000 ) ) ;
#674 = DIRECTION ( 'NONE',  ( -0.000000000000000000, -0.000000000000000000, 1.000000000000000000 ) ) ;
#675 = CARTESIAN_POINT ( 'NONE',  ( 5.999999999999992895, 30.50000000000001066, 5.000000000000000000 ) ) ;
#676 = VECTOR ( 'NONE', #695, 1000.000000000000000 ) ;
#677 =( NAMED_UNIT ( * ) PLANE_ANGLE_UNIT ( ) SI_UNIT ( $, .RADIAN. ) );
#678 = EDGE_LOOP ( 'NONE', ( #872, #531, #775, #864 ) ) ;
#679 = CIRCLE ( 'NONE', #755, 5.000000000000000000 ) ;
#680 = DIRECTION ( 'NONE',  ( 0.000000000000000000, 0.000000000000000000, 1.000000000000000000 ) ) ;
#681 = DIRECTION ( 'NONE',  ( -0.000000000000000000, 0.000000000000000000, 1.000000000000000000 ) ) ;
#682 = DIRECTION ( 'NONE',  ( -0.000000000000000000, -0.000000000000000000, -1.000000000000000000 ) ) ;
#683 = DIRECTION ( 'NONE',  ( -0.000000000000000000, 0.000000000000000000, -1.000000000000000000 ) ) ;
#684 = ORIENTED_EDGE ( 'NONE', *, *, #869, .F. ) ;
#685 = ADVANCED_FACE ( 'NONE', ( #343 ), #632, .T. ) ;
#686 = CARTESIAN_POINT ( 'NONE',  ( 22.99999999999999645, 23.00000000000000000, 5.000000000000000000 ) ) ;
#687 = CARTESIAN_POINT ( 'NONE',  ( 45.00000000000000711, 13.50000000000000355, 3.000000000000000000 ) ) ;
#688 = CARTESIAN_POINT ( 'NONE',  ( 30.50000000000001066, 42.99999999999999289, 3.828427124746190291 ) ) ;
#689 = ORIENTED_EDGE ( 'NONE', *, *, #35, .T. ) ;
#690 = ORIENTED_EDGE ( 'NONE', *, *, #526, .F. ) ;
#691 = ORIENTED_EDGE ( 'NONE', *, *, #500, .F. ) ;
#692 = CARTESIAN_POINT ( 'NONE',  ( 5.999999999999994671, 15.50000000000001066, 8.000000000000000000 ) ) ;
#693 = CARTESIAN_POINT ( 'NONE',  ( 0.000000000000000000, 41.00000000000000000, 3.000000000000000000 ) ) ;
#694 =( GEOMETRIC_REPRESENTATION_CONTEXT ( 3 ) GLOBAL_UNCERTAINTY_ASSIGNED_CONTEXT ( ( #1138 ) ) GLOBAL_UNIT_ASSIGNED_CONTEXT ( ( #516, #677, #141 ) ) REPRESENTATION_CONTEXT ( 'NONE', 'WORKASPACE' ) );
#695 = DIRECTION ( 'NONE',  ( -1.000000000000000000, -0.000000000000000000, -0.000000000000000000 ) ) ;
#696 = ORIENTED_EDGE ( 'NONE', *, *, #543, .T. ) ;
#697 = DIRECTION ( 'NONE',  ( 0.000000000000000000, 0.000000000000000000, -1.000000000000000000 ) ) ;
#698 = AXIS2_PLACEMENT_3D ( 'NONE', #919, #195, #480 ) ;
#699 = EDGE_CURVE ( 'NONE', #538, #861, #77, .T. ) ;
#700 = AXIS2_PLACEMENT_3D ( 'NONE', #361, #1088, #1081 ) ;
#701 = EDGE_CURVE ( 'NONE', #177, #261, #172, .T. ) ;
#702 = DIRECTION ( 'NONE',  ( -0.000000000000000000, -0.000000000000000000, -1.000000000000000000 ) ) ;
#703 = DIRECTION ( 'NONE',  ( 1.000000000000000000, 1.156482317317871478E-16, -0.000000000000000000 ) ) ;
#704 = ORIENTED_EDGE ( 'NONE', *, *, #1042, .F. ) ;
#705 = VERTEX_POINT ( 'NONE', #269 ) ;
#706 = CARTESIAN_POINT ( 'NONE',  ( 40.99999999999999289, 0.000000000000000000, 3.000000000000000000 ) ) ;
#707 = EDGE_LOOP ( 'NONE', ( #653, #105, #1165, #570 ) ) ;
#708 = EDGE_CURVE ( 'NONE', #982, #856, #188, .T. ) ;
#709 = ORIENTED_EDGE ( 'NONE', *, *, #119, .T. ) ;
#710 = CARTESIAN_POINT ( 'NONE',  ( 5.999999999999992895, 30.50000000000001066, 8.000000000000000000 ) ) ;
#711 = ORIENTED_EDGE ( 'NONE', *, *, #247, .F. ) ;
#712 = CARTESIAN_POINT ( 'NONE',  ( 27.99999999999999645, 23.00000000000000000, 5.000000000000000000 ) ) ;
#713 = ORIENTED_EDGE ( 'NONE', *, *, #750, .F. ) ;
#714 = CARTESIAN_POINT ( 'NONE',  ( 39.99999999999999289, 30.50000000000000355, 5.000000000000000000 ) ) ;
#715 = ORIENTED_EDGE ( 'NONE', *, *, #758, .F. ) ;
#716 =( LENGTH_UNIT ( ) NAMED_UNIT ( * ) SI_UNIT ( .MILLI., .METRE. ) );
#717 = EDGE_CURVE ( 'NONE', #84, #1030, #906, .T. ) ;
#718 = DIRECTION ( 'NONE',  ( -1.000000000000000000, 0.000000000000000000, 0.000000000000000000 ) ) ;
#719 = CARTESIAN_POINT ( 'NONE',  ( 5.999999999999992895, 30.50000000000001066, 8.000000000000000000 ) ) ;
#720 = VECTOR ( 'NONE', #1145, 1000.000000000000000 ) ;
#721 = CIRCLE ( 'NONE', #1022, 2.000000000000000000 ) ;
#722 = CYLINDRICAL_SURFACE ( 'NONE', #383, 2.000000000000000000 ) ;
#723 = UNCERTAINTY_MEASURE_WITH_UNIT (LENGTH_MEASURE( 1.000000000000000082E-05 ), #716, 'distance_accuracy_value', 'NONE');
#724 = DIRECTION ( 'NONE',  ( -0.000000000000000000, -0.000000000000000000, -1.000000000000000000 ) ) ;
#725 = VERTEX_POINT ( 'NONE', #1066 ) ;
#726 = ADVANCED_FACE ( 'NONE', ( #609 ), #22, .F. ) ;
#727 = CARTESIAN_POINT ( 'NONE',  ( 5.999999999999994671, 15.50000000000001066, 8.000000000000000000 ) ) ;
#728 = ORIENTED_EDGE ( 'NONE', *, *, #409, .T. ) ;
#729 = CARTESIAN_POINT ( 'NONE',  ( 0.9999999999999924505, 32.50000000000000711, 3.000000000000000000 ) ) ;
#730 = EDGE_LOOP ( 'NONE', ( #800, #610, #431, #568 ) ) ;
#731 = CARTESIAN_POINT ( 'NONE',  ( 5.000000000000000000, 46.00000000000000000, 0.000000000000000000 ) ) ;
#732 = FACE_OUTER_BOUND ( 'NONE', #102, .T. ) ;
#733 = LINE ( 'NONE', #295, #441 ) ;
#734 = DIRECTION ( 'NONE',  ( -1.000000000000000000, 0.000000000000000000, -0.000000000000000000 ) ) ;
#735 = ORIENTED_EDGE ( 'NONE', *, *, #613, .T. ) ;
#736 = VECTOR ( 'NONE', #645, 1000.000000000000000 ) ;
#737 = VECTOR ( 'NONE', #90, 1000.000000000000000 ) ;
#738 = ADVANCED_FACE ( 'NONE', ( #164 ), #900, .F. ) ;
#739 = LINE ( 'NONE', #115, #57 ) ;
#740 = CYLINDRICAL_SURFACE ( 'NONE', #771, 4.999999999999997335 ) ;
#741 = CIRCLE ( 'NONE', #158, 2.499999999999998668 ) ;
#742 = EDGE_CURVE ( 'NONE', #84, #745, #259, .T. ) ;
#743 = DIRECTION ( 'NONE',  ( -1.000000000000000000, 0.000000000000000000, 0.000000000000000000 ) ) ;
#744 = ORIENTED_EDGE ( 'NONE', *, *, #160, .T. ) ;
#745 = VERTEX_POINT ( 'NONE', #986 ) ;
#746 = CARTESIAN_POINT ( 'NONE',  ( 5.999999999999992895, 30.50000000000001066, 8.000000000000000000 ) ) ;
#747 = VERTEX_POINT ( 'NONE', #253 ) ;
#748 = CARTESIAN_POINT ( 'NONE',  ( 2.999999999999994227, 15.50000000000001066, 5.000000000000000000 ) ) ;
#749 = CARTESIAN_POINT ( 'NONE',  ( 25.49999999999999645, 23.00000000000000000, 6.500000000000000888 ) ) ;
#750 = EDGE_CURVE ( 'NONE', #1164, #307, #398, .T. ) ;
#751 = VECTOR ( 'NONE', #21, 1000.000000000000000 ) ;
#752 = CARTESIAN_POINT ( 'NONE',  ( 0.000000000000000000, 0.000000000000000000, 3.000000000000000000 ) ) ;
#753 = DIRECTION ( 'NONE',  ( 1.000000000000000000, -0.000000000000000000, -0.000000000000000000 ) ) ;
#754 = ORIENTED_EDGE ( 'NONE', *, *, #542, .T. ) ;
#755 = AXIS2_PLACEMENT_3D ( 'NONE', #461, #451, #16 ) ;
#756 = CARTESIAN_POINT ( 'NONE',  ( 5.999999999999992895, 32.50000000000000711, 5.000000000000000000 ) ) ;
#757 = VERTEX_POINT ( 'NONE', #11 ) ;
#758 = EDGE_CURVE ( 'NONE', #1151, #796, #923, .T. ) ;
#759 = CARTESIAN_POINT ( 'NONE',  ( 0.000000000000000000, 5.000000000000000000, 3.000000000000000000 ) ) ;
#760 = LINE ( 'NONE', #1119, #25 ) ;
#761 = EDGE_LOOP ( 'NONE', ( #1044, #330, #754, #1107 ) ) ;
#762 = FACE_OUTER_BOUND ( 'NONE', #1093, .T. ) ;
#763 = LINE ( 'NONE', #407, #513 ) ;
#764 = EDGE_CURVE ( 'NONE', #435, #366, #615, .T. ) ;
#765 = CARTESIAN_POINT ( 'NONE',  ( 30.50000000000000711, 43.00000000000000000, 5.000000000000000000 ) ) ;
#766 = FACE_OUTER_BOUND ( 'NONE', #607, .T. ) ;
#767 = DIRECTION ( 'NONE',  ( -0.000000000000000000, -0.000000000000000000, -1.000000000000000000 ) ) ;
#768 = DIRECTION ( 'NONE',  ( -1.000000000000000000, 0.000000000000000000, 0.000000000000000000 ) ) ;
#769 = DIRECTION ( 'NONE',  ( 1.000000000000000000, 0.000000000000000000, 0.000000000000000000 ) ) ;
#770 = EDGE_CURVE ( 'NONE', #856, #69, #787, .T. ) ;
#771 = AXIS2_PLACEMENT_3D ( 'NONE', #308, #936, #204 ) ;
#772 = EDGE_LOOP ( 'NONE', ( #684, #498, #1017, #288 ) ) ;
#773 = EDGE_LOOP ( 'NONE', ( #55, #1153 ) ) ;
#774 = VECTOR ( 'NONE', #485, 1000.000000000000000 ) ;
#775 = ORIENTED_EDGE ( 'NONE', *, *, #647, .F. ) ;
#776 = LINE ( 'NONE', #1143, #256 ) ;
#777 = DIRECTION ( 'NONE',  ( -1.000000000000000000, 0.000000000000000000, -0.000000000000000000 ) ) ;
#778 = EDGE_LOOP ( 'NONE', ( #976, #621, #15, #474 ) ) ;
#779 = ORIENTED_EDGE ( 'NONE', *, *, #819, .T. ) ;
#780 =( BOUNDED_CURVE ( )  B_SPLINE_CURVE ( 3, ( #687, #1052, #131, #244 ),
 .UNSPECIFIED., .F., .T. ) 
 B_SPLINE_CURVE_WITH_KNOTS ( ( 4, 4 ),
 ( 1.570796326794896558, 3.141592653589793116 ),
 .UNSPECIFIED. ) 
 CURVE ( )  GEOMETRIC_REPRESENTATION_ITEM ( )  RATIONAL_B_SPLINE_CURVE ( ( 1.000000000000000000, 0.8047378541243649375, 0.8047378541243649375, 1.000000000000000000 ) ) 
 REPRESENTATION_ITEM ( '' )  );
#781 = FACE_OUTER_BOUND ( 'NONE', #437, .T. ) ;
#782 = PRESENTATION_STYLE_ASSIGNMENT (( #959 ) ) ;
#783 = VERTEX_POINT ( 'NONE', #795 ) ;
#784 = ORIENTED_EDGE ( 'NONE', *, *, #852, .F. ) ;
#785 = ADVANCED_FACE ( 'NONE', ( #348 ), #264, .T. ) ;
#786 = FACE_OUTER_BOUND ( 'NONE', #1037, .T. ) ;
#787 = LINE ( 'NONE', #524, #1076 ) ;
#788 = VERTEX_POINT ( 'NONE', #727 ) ;
#789 = CARTESIAN_POINT ( 'NONE',  ( 17.99999999999999645, 23.00000000000000000, 5.000000000000000000 ) ) ;
#790 = VECTOR ( 'NONE', #345, 1000.000000000000000 ) ;
#791 = AXIS2_PLACEMENT_3D ( 'NONE', #553, #103, #18 ) ;
#792 = EDGE_CURVE ( 'NONE', #371, #69, #739, .T. ) ;
#793 = CYLINDRICAL_SURFACE ( 'NONE', #829, 2.000000000000000000 ) ;
#794 = LINE ( 'NONE', #430, #913 ) ;
#795 = CARTESIAN_POINT ( 'NONE',  ( 5.999999999999992895, 32.50000000000000711, 3.000000000000000000 ) ) ;
#796 = VERTEX_POINT ( 'NONE', #748 ) ;
#797 = CARTESIAN_POINT ( 'NONE',  ( 43.00000000000000000, 15.50000000000000355, 5.000000000000000000 ) ) ;
#798 = VERTEX_POINT ( 'NONE', #731 ) ;
#799 = DIRECTION ( 'NONE',  ( 0.000000000000000000, -1.000000000000000000, 0.000000000000000000 ) ) ;
#800 = ORIENTED_EDGE ( 'NONE', *, *, #335, .F. ) ;
#801 = DIRECTION ( 'NONE',  ( 0.000000000000000000, 0.000000000000000000, -1.000000000000000000 ) ) ;
#802 = LINE ( 'NONE', #719, #529 ) ;
#803 = APPLICATION_CONTEXT ( 'automotive_design' ) ;
#804 = DIRECTION ( 'NONE',  ( -1.000000000000000000, 0.000000000000000000, 0.000000000000000000 ) ) ;
#805 = EDGE_CURVE ( 'NONE', #1030, #747, #1091, .T. ) ;
#806 = DIRECTION ( 'NONE',  ( -1.000000000000000000, 0.000000000000000000, 0.000000000000000000 ) ) ;
#807 = CARTESIAN_POINT ( 'NONE',  ( 45.99999999999999289, 41.00000000000000000, 3.000000000000000000 ) ) ;
#808 = CARTESIAN_POINT ( 'NONE',  ( 39.99999999999999289, 30.50000000000000355, 8.000000000000000000 ) ) ;
#809 = VECTOR ( 'NONE', #629, 1000.000000000000000 ) ;
#810 = VECTOR ( 'NONE', #547, 1000.000000000000000 ) ;
#811 = CARTESIAN_POINT ( 'NONE',  ( 22.99999999999999645, 23.00000000000000000, 5.000000000000000000 ) ) ;
#812 = ORIENTED_EDGE ( 'NONE', *, *, #1148, .F. ) ;
#813 = DIRECTION ( 'NONE',  ( -1.156482317317871478E-16, 1.000000000000000000, -0.000000000000000000 ) ) ;
#814 = AXIS2_PLACEMENT_3D ( 'NONE', #892, #1169, #972 ) ;
#815 = CARTESIAN_POINT ( 'NONE',  ( 2.999999999999992895, 30.50000000000001066, 5.000000000000000000 ) ) ;
#816 = FACE_OUTER_BOUND ( 'NONE', #417, .T. ) ;
#817 = ORIENTED_EDGE ( 'NONE', *, *, #770, .T. ) ;
#818 = DIRECTION ( 'NONE',  ( -0.000000000000000000, -0.000000000000000000, 1.000000000000000000 ) ) ;
#819 = EDGE_CURVE ( 'NONE', #942, #554, #151, .T. ) ;
#820 = CARTESIAN_POINT ( 'NONE',  ( 5.000000000000000000, 41.00000000000000000, 0.000000000000000000 ) ) ;
#821 = DIRECTION ( 'NONE',  ( 1.000000000000000000, 4.625929269271485914E-16, -0.000000000000000000 ) ) ;
#822 = AXIS2_PLACEMENT_3D ( 'NONE', #325, #683, #585 ) ;
#823 = ADVANCED_FACE ( 'NONE', ( #816 ), #99, .F. ) ;
#824 = VECTOR ( 'NONE', #493, 1000.000000000000000 ) ;
#825 = DIRECTION ( 'NONE',  ( -1.000000000000000000, -0.000000000000000000, -0.000000000000000000 ) ) ;
#826 = EDGE_LOOP ( 'NONE', ( #533, #690, #920, #219 ) ) ;
#827 = ORIENTED_EDGE ( 'NONE', *, *, #466, .T. ) ;
#828 = CARTESIAN_POINT ( 'NONE',  ( 5.999999999999994671, 15.50000000000001066, 5.000000000000000000 ) ) ;
#829 = AXIS2_PLACEMENT_3D ( 'NONE', #353, #442, #273 ) ;
#830 = PRODUCT_CONTEXT ( 'NONE', #486, 'mechanical' ) ;
#831 = ADVANCED_FACE ( 'NONE', ( #14, #369, #572, #277, #926 ), #1095, .F. ) ;
#832 = DIRECTION ( 'NONE',  ( 0.000000000000000000, 1.000000000000000000, 0.000000000000000000 ) ) ;
#833 = CARTESIAN_POINT ( 'NONE',  ( 30.50000000000000711, 39.99999999999999289, 8.000000000000000000 ) ) ;
#834 = EDGE_LOOP ( 'NONE', ( #110, #344, #955, #207 ) ) ;
#835 = CARTESIAN_POINT ( 'NONE',  ( 5.999999999999994671, 13.50000000000001066, 5.000000000000000000 ) ) ;
#836 = CARTESIAN_POINT ( 'NONE',  ( 43.00000000000000000, 15.50000000000000355, 8.000000000000000000 ) ) ;
#837 = EDGE_CURVE ( 'NONE', #544, #554, #1112, .T. ) ;
#838 = CARTESIAN_POINT ( 'NONE',  ( 0.000000000000000000, 0.000000000000000000, 0.000000000000000000 ) ) ;
#839 = DIRECTION ( 'NONE',  ( 0.000000000000000000, 0.000000000000000000, 1.000000000000000000 ) ) ;
#840 = VECTOR ( 'NONE', #1003, 1000.000000000000000 ) ;
#841 = AXIS2_PLACEMENT_3D ( 'NONE', #1010, #178, #2 ) ;
#842 = CARTESIAN_POINT ( 'NONE',  ( 15.50000000000000711, 42.99999999999999289, 3.828427124746190291 ) ) ;
#843 = DIRECTION ( 'NONE',  ( 1.000000000000000000, -0.000000000000000000, -0.000000000000000000 ) ) ;
#844 = AXIS2_PLACEMENT_3D ( 'NONE', #835, #1109, #111 ) ;
#845 = CARTESIAN_POINT ( 'NONE',  ( 15.50000000000000711, 39.99999999999999289, 5.000000000000000000 ) ) ;
#846 = VECTOR ( 'NONE', #979, 1000.000000000000000 ) ;
#847 = PLANE ( 'NONE',  #951 ) ;
#848 = DIRECTION ( 'NONE',  ( 1.000000000000000000, -0.000000000000000000, -0.000000000000000000 ) ) ;
#849 = DIRECTION ( 'NONE',  ( -1.000000000000000000, 0.000000000000000000, 0.000000000000000000 ) ) ;
#850 = ORIENTED_EDGE ( 'NONE', *, *, #1001, .F. ) ;
#851 = DIRECTION ( 'NONE',  ( 0.000000000000000000, -1.000000000000000000, 0.000000000000000000 ) ) ;
#852 = EDGE_CURVE ( 'NONE', #435, #538, #650, .T. ) ;
#853 = DIRECTION ( 'NONE',  ( -0.000000000000000000, -0.000000000000000000, 1.000000000000000000 ) ) ;
#854 = CARTESIAN_POINT ( 'NONE',  ( 22.99999999999999645, 23.00000000000000000, 3.000000000000000000 ) ) ;
#855 = ORIENTED_EDGE ( 'NONE', *, *, #250, .F. ) ;
#856 = VERTEX_POINT ( 'NONE', #836 ) ;
#857 = LINE ( 'NONE', #433, #790 ) ;
#858 =( BOUNDED_CURVE ( )  B_SPLINE_CURVE ( 3, ( #729, #12, #643, #350 ),
 .UNSPECIFIED., .F., .T. ) 
 B_SPLINE_CURVE_WITH_KNOTS ( ( 4, 4 ),
 ( 1.570796326794896780, 3.141592653589793116 ),
 .UNSPECIFIED. ) 
 CURVE ( )  GEOMETRIC_REPRESENTATION_ITEM ( )  RATIONAL_B_SPLINE_CURVE ( ( 1.000000000000000000, 0.8047378541243650485, 0.8047378541243650485, 1.000000000000000000 ) ) 
 REPRESENTATION_ITEM ( '' )  );
#859 = DIRECTION ( 'NONE',  ( 1.000000000000000000, 0.000000000000000000, 0.000000000000000000 ) ) ;
#860 = AXIS2_PLACEMENT_3D ( 'NONE', #658, #915, #377 ) ;
#861 = VERTEX_POINT ( 'NONE', #296 ) ;
#862 = VERTEX_POINT ( 'NONE', #1023 ) ;
#863 = CARTESIAN_POINT ( 'NONE',  ( 32.50000000000000711, 45.00000000000000000, 3.000000000000000000 ) ) ;
#864 = ORIENTED_EDGE ( 'NONE', *, *, #198, .F. ) ;
#865 = AXIS2_PLACEMENT_3D ( 'NONE', #275, #999, #224 ) ;
#866 = CARTESIAN_POINT ( 'NONE',  ( 0.000000000000000000, 46.00000000000000000, 3.000000000000000000 ) ) ;
#867 = EDGE_CURVE ( 'NONE', #17, #1030, #384, .T. ) ;
#868 = CARTESIAN_POINT ( 'NONE',  ( 43.00000000000000000, 30.50000000000000355, 8.000000000000000000 ) ) ;
#869 = EDGE_CURVE ( 'NONE', #891, #1096, #472, .T. ) ;
#870 = ORIENTED_EDGE ( 'NONE', *, *, #1042, .T. ) ;
#871 = PLANE ( 'NONE',  #109 ) ;
#872 = ORIENTED_EDGE ( 'NONE', *, *, #1008, .T. ) ;
#873 = VERTEX_POINT ( 'NONE', #636 ) ;
#874 = CARTESIAN_POINT ( 'NONE',  ( 0.000000000000000000, 0.000000000000000000, 8.000000000000000000 ) ) ;
#875 = VERTEX_POINT ( 'NONE', #205 ) ;
#876 = FACE_OUTER_BOUND ( 'NONE', #575, .T. ) ;
#877 = CARTESIAN_POINT ( 'NONE',  ( 2.171572875253803936, 14.67157287525381726, 2.999999999999999556 ) ) ;
#878 = ORIENTED_EDGE ( 'NONE', *, *, #185, .F. ) ;
#879 = EDGE_CURVE ( 'NONE', #69, #116, #390, .T. ) ;
#880 = VERTEX_POINT ( 'NONE', #565 ) ;
#881 = CARTESIAN_POINT ( 'NONE',  ( 39.99999999999999289, 30.50000000000000355, 8.000000000000000000 ) ) ;
#882 = FACE_OUTER_BOUND ( 'NONE', #299, .T. ) ;
#883 = PRODUCT_DEFINITION ( 'UNKNOWN', '', #517, #984 ) ;
#884 = VECTOR ( 'NONE', #399, 1000.000000000000000 ) ;
#885 = DIRECTION ( 'NONE',  ( -0.000000000000000000, -0.000000000000000000, -1.000000000000000000 ) ) ;
#886 = EDGE_LOOP ( 'NONE', ( #1000, #969, #303, #870 ) ) ;
#887 = ORIENTED_EDGE ( 'NONE', *, *, #271, .T. ) ;
#888 = EDGE_CURVE ( 'NONE', #1157, #116, #192, .T. ) ;
#889 = CARTESIAN_POINT ( 'NONE',  ( 40.00000000000000000, 13.50000000000000355, 3.000000000000000000 ) ) ;
#890 = VECTOR ( 'NONE', #89, 1000.000000000000000 ) ;
#891 = VERTEX_POINT ( 'NONE', #1009 ) ;
#892 = CARTESIAN_POINT ( 'NONE',  ( 15.99999999999999289, 23.00000000000000000, 5.000000000000000000 ) ) ;
#893 = FACE_OUTER_BOUND ( 'NONE', #899, .T. ) ;
#894 = VECTOR ( 'NONE', #311, 1000.000000000000000 ) ;
#895 = CARTESIAN_POINT ( 'NONE',  ( 30.50000000000000711, 39.99999999999999289, 5.000000000000000000 ) ) ;
#896 = ORIENTED_EDGE ( 'NONE', *, *, #914, .T. ) ;
#897 = EDGE_CURVE ( 'NONE', #261, #78, #551, .T. ) ;
#898 = LINE ( 'NONE', #173, #211 ) ;
#899 = EDGE_LOOP ( 'NONE', ( #386, #1004, #1152, #987 ) ) ;
#900 = PLANE ( 'NONE',  #283 ) ;
#901 = PLANE ( 'NONE',  #841 ) ;
#902 = EDGE_LOOP ( 'NONE', ( #1120, #912, #981, #812 ) ) ;
#903 = DIRECTION ( 'NONE',  ( -1.000000000000000000, -0.000000000000000000, -0.000000000000000000 ) ) ;
#904 = EDGE_CURVE ( 'NONE', #245, #982, #284, .T. ) ;
#905 = ORIENTED_EDGE ( 'NONE', *, *, #962, .F. ) ;
#906 = LINE ( 'NONE', #183, #471 ) ;
#907 = ORIENTED_EDGE ( 'NONE', *, *, #879, .F. ) ;
#908 = DIRECTION ( 'NONE',  ( 0.000000000000000000, 0.000000000000000000, -1.000000000000000000 ) ) ;
#909 = VERTEX_POINT ( 'NONE', #481 ) ;
#910 = DIRECTION ( 'NONE',  ( 0.000000000000000000, -1.000000000000000000, 0.000000000000000000 ) ) ;
#911 = PRESENTATION_LAYER_ASSIGNMENT (  '', '', ( #1021 ) ) ;
#912 = ORIENTED_EDGE ( 'NONE', *, *, #956, .T. ) ;
#913 = VECTOR ( 'NONE', #1146, 1000.000000000000000 ) ;
#914 = EDGE_CURVE ( 'NONE', #366, #235, #921, .T. ) ;
#915 = DIRECTION ( 'NONE',  ( 0.000000000000000000, 0.000000000000000000, -1.000000000000000000 ) ) ;
#916 = VERTEX_POINT ( 'NONE', #467 ) ;
#917 = EDGE_CURVE ( 'NONE', #757, #798, #639, .T. ) ;
#918 = FACE_OUTER_BOUND ( 'NONE', #902, .T. ) ;
#919 = CARTESIAN_POINT ( 'NONE',  ( 5.999999999999992895, 30.50000000000001066, 8.000000000000000000 ) ) ;
#920 = ORIENTED_EDGE ( 'NONE', *, *, #917, .F. ) ;
#921 = LINE ( 'NONE', #364, #1154 ) ;
#922 = CARTESIAN_POINT ( 'NONE',  ( 22.99999999999999645, 23.00000000000000000, 5.000000000000000000 ) ) ;
#923 =( BOUNDED_CURVE ( )  B_SPLINE_CURVE ( 3, ( #1060, #877, #71, #980 ),
 .UNSPECIFIED., .F., .T. ) 
 B_SPLINE_CURVE_WITH_KNOTS ( ( 4, 4 ),
 ( 1.570796326794896780, 3.141592653589793116 ),
 .UNSPECIFIED. ) 
 CURVE ( )  GEOMETRIC_REPRESENTATION_ITEM ( )  RATIONAL_B_SPLINE_CURVE ( ( 1.000000000000000000, 0.8047378541243650485, 0.8047378541243650485, 1.000000000000000000 ) ) 
 REPRESENTATION_ITEM ( '' )  );
#924 = CARTESIAN_POINT ( 'NONE',  ( 45.99999999999999289, 5.000000000000000000, 0.000000000000000000 ) ) ;
#925 = ADVANCED_FACE ( 'NONE', ( #33 ), #495, .F. ) ;
#926 = FACE_BOUND ( 'NONE', #778, .T. ) ;
#927 = LINE ( 'NONE', #31, #736 ) ;
#928 = VECTOR ( 'NONE', #393, 1000.000000000000000 ) ;
#929 = SHAPE_DEFINITION_REPRESENTATION ( #222, #626 ) ;
#930 = CARTESIAN_POINT ( 'NONE',  ( 45.99999999999999289, 0.000000000000000000, 3.000000000000000000 ) ) ;
#931 = DIRECTION ( 'NONE',  ( 0.000000000000000000, 0.000000000000000000, 1.000000000000000000 ) ) ;
#932 = EDGE_LOOP ( 'NONE', ( #294, #249, #405, #631 ) ) ;
#933 = AXIS2_PLACEMENT_3D ( 'NONE', #422, #853, #945 ) ;
#934 = EDGE_CURVE ( 'NONE', #307, #1164, #741, .T. ) ;
#935 = DIRECTION ( 'NONE',  ( 4.625929269271485914E-16, -1.000000000000000000, 0.000000000000000000 ) ) ;
#936 = DIRECTION ( 'NONE',  ( 0.000000000000000000, 0.000000000000000000, -1.000000000000000000 ) ) ;
#937 = CARTESIAN_POINT ( 'NONE',  ( 22.99999999999999645, 23.00000000000000000, 6.500000000000000888 ) ) ;
#938 = DIRECTION ( 'NONE',  ( 1.156482317317871478E-16, -1.000000000000000000, 0.000000000000000000 ) ) ;
#939 = CARTESIAN_POINT ( 'NONE',  ( 15.50000000000000711, 39.99999999999999289, 8.000000000000000000 ) ) ;
#940 = DIRECTION ( 'NONE',  ( 1.000000000000000000, 4.625929269271485914E-16, -0.000000000000000000 ) ) ;
#941 = CYLINDRICAL_SURFACE ( 'NONE', #985, 2.000000000000000000 ) ;
#942 = VERTEX_POINT ( 'NONE', #323 ) ;
#943 = VECTOR ( 'NONE', #436, 1000.000000000000000 ) ;
#944 = AXIS2_PLACEMENT_3D ( 'NONE', #328, #957, #505 ) ;
#945 = DIRECTION ( 'NONE',  ( -1.000000000000000000, 0.000000000000000000, 0.000000000000000000 ) ) ;
#946 = CIRCLE ( 'NONE', #844, 2.000000000000000000 ) ;
#947 = FACE_OUTER_BOUND ( 'NONE', #1067, .T. ) ;
#948 = EDGE_CURVE ( 'NONE', #146, #72, #1064, .T. ) ;
#949 = CARTESIAN_POINT ( 'NONE',  ( 22.99999999999999645, 23.00000000000000000, 6.500000000000000888 ) ) ;
#950 = EDGE_LOOP ( 'NONE', ( #28, #896, #312, #784 ) ) ;
#951 = AXIS2_PLACEMENT_3D ( 'NONE', #752, #316, #48 ) ;
#952 = CARTESIAN_POINT ( 'NONE',  ( 15.50000000000000711, 39.99999999999999289, 8.000000000000000000 ) ) ;
#953 = FACE_OUTER_BOUND ( 'NONE', #400, .T. ) ;
#954 = ORIENTED_EDGE ( 'NONE', *, *, #1078, .F. ) ;
#955 = ORIENTED_EDGE ( 'NONE', *, *, #1148, .T. ) ;
#956 = EDGE_CURVE ( 'NONE', #541, #307, #53, .T. ) ;
#957 = DIRECTION ( 'NONE',  ( 0.000000000000000000, 0.000000000000000000, 1.000000000000000000 ) ) ;
#958 = CARTESIAN_POINT ( 'NONE',  ( 0.000000000000000000, 0.000000000000000000, 3.000000000000000000 ) ) ;
#959 = SURFACE_STYLE_USAGE ( .BOTH. , #497 ) ;
#960 = ORIENTED_EDGE ( 'NONE', *, *, #622, .F. ) ;
#961 = PLANE ( 'NONE',  #586 ) ;
#962 = EDGE_CURVE ( 'NONE', #745, #873, #588, .T. ) ;
#963 = EDGE_CURVE ( 'NONE', #873, #595, #487, .T. ) ;
#964 = CARTESIAN_POINT ( 'NONE',  ( 40.00000000000000000, 15.50000000000000355, 8.000000000000000000 ) ) ;
#965 = AXIS2_PLACEMENT_3D ( 'NONE', #1127, #849, #126 ) ;
#966 = SURFACE_STYLE_FILL_AREA ( #67 ) ;
#967 = VERTEX_POINT ( 'NONE', #1118 ) ;
#968 = VECTOR ( 'NONE', #910, 1000.000000000000000 ) ;
#969 = ORIENTED_EDGE ( 'NONE', *, *, #304, .T. ) ;
#970 = CARTESIAN_POINT ( 'NONE',  ( 30.50000000000000711, 45.00000000000000000, 3.000000000000000000 ) ) ;
#971 = AXIS2_PLACEMENT_3D ( 'NONE', #1032, #769, #502 ) ;
#972 = DIRECTION ( 'NONE',  ( 0.000000000000000000, 0.000000000000000000, -1.000000000000000000 ) ) ;
#973 = ADVANCED_FACE ( 'NONE', ( #122 ), #847, .F. ) ;
#974 = CARTESIAN_POINT ( 'NONE',  ( 40.00000000000000000, 15.50000000000000355, 8.000000000000000000 ) ) ;
#975 = ORIENTED_EDGE ( 'NONE', *, *, #1094, .T. ) ;
#976 = ORIENTED_EDGE ( 'NONE', *, *, #225, .T. ) ;
#977 = CARTESIAN_POINT ( 'NONE',  ( 39.99999999999999289, 32.50000000000000000, 3.000000000000000000 ) ) ;
#978 = EDGE_LOOP ( 'NONE', ( #672, #389, #651, #148 ) ) ;
#979 = DIRECTION ( 'NONE',  ( -0.000000000000000000, -0.000000000000000000, -1.000000000000000000 ) ) ;
#980 = CARTESIAN_POINT ( 'NONE',  ( 2.999999999999994227, 15.50000000000001066, 5.000000000000000000 ) ) ;
#981 = ORIENTED_EDGE ( 'NONE', *, *, #934, .T. ) ;
#982 = VERTEX_POINT ( 'NONE', #964 ) ;
#983 = CARTESIAN_POINT ( 'NONE',  ( 45.00000000000000711, 13.50000000000000355, 3.000000000000000000 ) ) ;
#984 = PRODUCT_DEFINITION_CONTEXT ( 'detailed design', #803, 'design' ) ;
#985 = AXIS2_PLACEMENT_3D ( 'NONE', #490, #44, #406 ) ;
#986 = CARTESIAN_POINT ( 'NONE',  ( 15.50000000000000711, 43.00000000000000000, 8.000000000000000000 ) ) ;
#987 = ORIENTED_EDGE ( 'NONE', *, *, #742, .F. ) ;
#988 = FACE_OUTER_BOUND ( 'NONE', #1137, .T. ) ;
#989 = AXIS2_PLACEMENT_3D ( 'NONE', #994, #463, #534 ) ;
#990 = EDGE_CURVE ( 'NONE', #909, #156, #42, .T. ) ;
#991 = LINE ( 'NONE', #1065, #846 ) ;
#992 = CARTESIAN_POINT ( 'NONE',  ( 2.999999999999992895, 30.50000000000001066, 8.000000000000000000 ) ) ;
#993 = CIRCLE ( 'NONE', #814, 2.000000000000000000 ) ;
#994 = CARTESIAN_POINT ( 'NONE',  ( 22.99999999999999645, 23.00000000000000000, 6.500000000000000888 ) ) ;
#995 = ORIENTED_EDGE ( 'NONE', *, *, #701, .T. ) ;
#996 = CARTESIAN_POINT ( 'NONE',  ( 32.50000000000000711, 39.99999999999999289, 5.000000000000000000 ) ) ;
#997 = DIRECTION ( 'NONE',  ( -1.000000000000000000, 0.000000000000000000, 0.000000000000000000 ) ) ;
#998 = DIRECTION ( 'NONE',  ( -1.000000000000000000, 0.000000000000000000, 0.000000000000000000 ) ) ;
#999 = DIRECTION ( 'NONE',  ( 1.000000000000000000, 4.625929269271485914E-16, -0.000000000000000000 ) ) ;
#1000 = ORIENTED_EDGE ( 'NONE', *, *, #563, .F. ) ;
#1001 = EDGE_CURVE ( 'NONE', #880, #254, #305, .T. ) ;
#1002 = EDGE_CURVE ( 'NONE', #873, #370, #217, .T. ) ;
#1003 = DIRECTION ( 'NONE',  ( 0.000000000000000000, 1.000000000000000000, 0.000000000000000000 ) ) ;
#1004 = ORIENTED_EDGE ( 'NONE', *, *, #805, .T. ) ;
#1005 = VECTOR ( 'NONE', #199, 1000.000000000000000 ) ;
#1006 = CIRCLE ( 'NONE', #378, 2.000000000000001776 ) ;
#1007 = VECTOR ( 'NONE', #558, 1000.000000000000000 ) ;
#1008 = EDGE_CURVE ( 'NONE', #265, #747, #423, .T. ) ;
#1009 = CARTESIAN_POINT ( 'NONE',  ( 40.99999999999999289, 46.00000000000000000, 3.000000000000000000 ) ) ;
#1010 = CARTESIAN_POINT ( 'NONE',  ( 45.99999999999999289, 0.000000000000000000, 3.000000000000000000 ) ) ;
#1011 = DIRECTION ( 'NONE',  ( 0.000000000000000000, 1.000000000000000000, 0.000000000000000000 ) ) ;
#1012 = DIRECTION ( 'NONE',  ( -1.000000000000000000, 0.000000000000000000, 0.000000000000000000 ) ) ;
#1013 = LINE ( 'NONE', #374, #130 ) ;
#1014 = CARTESIAN_POINT ( 'NONE',  ( 30.50000000000000711, 43.00000000000000000, 5.000000000000000000 ) ) ;
#1015 = ORIENTED_EDGE ( 'NONE', *, *, #758, .T. ) ;
#1016 = CARTESIAN_POINT ( 'NONE',  ( 0.000000000000000000, 46.00000000000000000, 0.000000000000000000 ) ) ;
#1017 = ORIENTED_EDGE ( 'NONE', *, *, #476, .T. ) ;
#1018 = PLANE ( 'NONE',  #9 ) ;
#1019 = ORIENTED_EDGE ( 'NONE', *, *, #160, .F. ) ;
#1020 = EDGE_CURVE ( 'NONE', #1096, #1092, #446, .T. ) ;
#1021 = STYLED_ITEM ( 'NONE', ( #782 ), #618 ) ;
#1022 = AXIS2_PLACEMENT_3D ( 'NONE', #996, #79, #352 ) ;
#1023 = CARTESIAN_POINT ( 'NONE',  ( 0.9999999999999924505, 32.50000000000000711, 3.000000000000000000 ) ) ;
#1024 = DIRECTION ( 'NONE',  ( 1.000000000000000000, 0.000000000000000000, 0.000000000000000000 ) ) ;
#1025 = VECTOR ( 'NONE', #674, 1000.000000000000000 ) ;
#1026 = CARTESIAN_POINT ( 'NONE',  ( 0.000000000000000000, 0.000000000000000000, 0.000000000000000000 ) ) ;
#1027 = CARTESIAN_POINT ( 'NONE',  ( 5.999999999999992895, 32.50000000000000711, 3.000000000000000000 ) ) ;
#1028 = EDGE_LOOP ( 'NONE', ( #212, #518, #715, #960 ) ) ;
#1029 = CARTESIAN_POINT ( 'NONE',  ( 0.000000000000000000, 0.000000000000000000, 3.000000000000000000 ) ) ;
#1030 = VERTEX_POINT ( 'NONE', #765 ) ;
#1031 = LINE ( 'NONE', #229, #824 ) ;
#1032 = CARTESIAN_POINT ( 'NONE',  ( 39.99999999999999289, 32.50000000000000000, 5.000000000000000000 ) ) ;
#1033 = EDGE_CURVE ( 'NONE', #1092, #156, #239, .T. ) ;
#1034 = ORIENTED_EDGE ( 'NONE', *, *, #460, .T. ) ;
#1035 = PLANE ( 'NONE',  #822 ) ;
#1036 = CARTESIAN_POINT ( 'NONE',  ( 22.99999999999999645, 23.00000000000000000, 5.000000000000000000 ) ) ;
#1037 = EDGE_LOOP ( 'NONE', ( #817, #240, #155, #504 ) ) ;
#1038 = CIRCLE ( 'NONE', #74, 7.000000000000002665 ) ;
#1039 = CIRCLE ( 'NONE', #340, 2.499999999999998668 ) ;
#1040 = CARTESIAN_POINT ( 'NONE',  ( 13.50000000000000711, 45.00000000000000000, 3.000000000000000000 ) ) ;
#1041 = PLANE ( 'NONE',  #286 ) ;
#1042 = EDGE_CURVE ( 'NONE', #254, #177, #145, .T. ) ;
#1043 = FACE_OUTER_BOUND ( 'NONE', #337, .T. ) ;
#1044 = ORIENTED_EDGE ( 'NONE', *, *, #962, .T. ) ;
#1045 = AXIS2_PLACEMENT_3D ( 'NONE', #428, #81, #186 ) ;
#1046 = DIRECTION ( 'NONE',  ( -0.000000000000000000, -1.000000000000000000, -0.000000000000000000 ) ) ;
#1047 = CARTESIAN_POINT ( 'NONE',  ( 45.00000000000000711, 32.50000000000000000, 3.000000000000000000 ) ) ;
#1048 = DIRECTION ( 'NONE',  ( -1.000000000000000000, 0.000000000000000000, 0.000000000000000000 ) ) ;
#1049 = ORIENTED_EDGE ( 'NONE', *, *, #408, .T. ) ;
#1050 = EDGE_CURVE ( 'NONE', #745, #747, #776, .T. ) ;
#1051 = DIRECTION ( 'NONE',  ( -0.000000000000000000, -0.000000000000000000, -1.000000000000000000 ) ) ;
#1052 = CARTESIAN_POINT ( 'NONE',  ( 43.82842712474621294, 14.67157287525381548, 3.000000000000000888 ) ) ;
#1053 = ORIENTED_EDGE ( 'NONE', *, *, #914, .F. ) ;
#1054 = FACE_OUTER_BOUND ( 'NONE', #932, .T. ) ;
#1055 = EDGE_CURVE ( 'NONE', #1070, #69, #780, .T. ) ;
#1056 = AXIS2_PLACEMENT_3D ( 'NONE', #756, #660, #649 ) ;
#1057 = DIRECTION ( 'NONE',  ( -0.000000000000000000, -0.000000000000000000, -1.000000000000000000 ) ) ;
#1058 = VECTOR ( 'NONE', #832, 1000.000000000000000 ) ;
#1059 = ORIENTED_EDGE ( 'NONE', *, *, #52, .T. ) ;
#1060 = CARTESIAN_POINT ( 'NONE',  ( 0.9999999999999945599, 13.50000000000001066, 3.000000000000000000 ) ) ;
#1061 = ORIENTED_EDGE ( 'NONE', *, *, #216, .T. ) ;
#1062 = CIRCLE ( 'NONE', #251, 5.000000000000000000 ) ;
#1063 = ORIENTED_EDGE ( 'NONE', *, *, #917, .T. ) ;
#1064 = CIRCLE ( 'NONE', #571, 5.000000000000000888 ) ;
#1065 = CARTESIAN_POINT ( 'NONE',  ( 20.49999999999999645, 23.00000000000000000, 6.500000000000000888 ) ) ;
#1066 = CARTESIAN_POINT ( 'NONE',  ( 30.00000000000000000, 23.00000000000000000, 3.000000000000000000 ) ) ;
#1067 = EDGE_LOOP ( 'NONE', ( #850, #689, #176, #1063, #388, #779, #342, #728 ) ) ;
#1068 = PLANE ( 'NONE',  #1099 ) ;
#1069 = EDGE_CURVE ( 'NONE', #261, #544, #329, .T. ) ;
#1070 = VERTEX_POINT ( 'NONE', #983 ) ;
#1071 = DIRECTION ( 'NONE',  ( -0.000000000000000000, -0.000000000000000000, 1.000000000000000000 ) ) ;
#1072 = ORIENTED_EDGE ( 'NONE', *, *, #699, .T. ) ;
#1073 = LINE ( 'NONE', #1079, #810 ) ;
#1074 =( NAMED_UNIT ( * ) SI_UNIT ( $, .STERADIAN. ) SOLID_ANGLE_UNIT ( ) );
#1075 = ORIENTED_EDGE ( 'NONE', *, *, #47, .T. ) ;
#1076 = VECTOR ( 'NONE', #885, 1000.000000000000000 ) ;
#1077 = CARTESIAN_POINT ( 'NONE',  ( 15.50000000000000711, 43.00000000000000000, 8.000000000000000000 ) ) ;
#1078 = EDGE_CURVE ( 'NONE', #370, #17, #898, .T. ) ;
#1079 = CARTESIAN_POINT ( 'NONE',  ( 0.9999999999999926725, 30.50000000000001066, 3.000000000000000000 ) ) ;
#1080 = EDGE_LOOP ( 'NONE', ( #182, #293, #426, #614 ) ) ;
#1081 = DIRECTION ( 'NONE',  ( -1.000000000000000000, 0.000000000000000000, 0.000000000000000000 ) ) ;
#1082 = CIRCLE ( 'NONE', #700, 4.999999999999997335 ) ;
#1083 = CYLINDRICAL_SURFACE ( 'NONE', #1045, 2.000000000000000000 ) ;
#1084 = ORIENTED_EDGE ( 'NONE', *, *, #439, .T. ) ;
#1085 = DIRECTION ( 'NONE',  ( 1.156482317317871478E-16, -1.000000000000000000, 0.000000000000000000 ) ) ;
#1086 = FACE_OUTER_BOUND ( 'NONE', #1087, .T. ) ;
#1087 = EDGE_LOOP ( 'NONE', ( #379, #285, #121, #1147 ) ) ;
#1088 = DIRECTION ( 'NONE',  ( -0.000000000000000000, -0.000000000000000000, 1.000000000000000000 ) ) ;
#1089 = ORIENTED_EDGE ( 'NONE', *, *, #515, .T. ) ;
#1090 = ADVANCED_FACE ( 'NONE', ( #876 ), #722, .F. ) ;
#1091 = LINE ( 'NONE', #1106, #657 ) ;
#1092 = VERTEX_POINT ( 'NONE', #1155 ) ;
#1093 = EDGE_LOOP ( 'NONE', ( #95, #1089, #691, #617 ) ) ;
#1094 = EDGE_CURVE ( 'NONE', #916, #146, #993, .T. ) ;
#1095 = PLANE ( 'NONE',  #92 ) ;
#1096 = VERTEX_POINT ( 'NONE', #257 ) ;
#1097 = AXIS2_PLACEMENT_3D ( 'NONE', #175, #532, #1012 ) ;
#1098 = FACE_OUTER_BOUND ( 'NONE', #1142, .T. ) ;
#1099 = AXIS2_PLACEMENT_3D ( 'NONE', #874, #681, #56 ) ;
#1100 = AXIS2_PLACEMENT_3D ( 'NONE', #298, #1011, #213 ) ;
#1101 = CARTESIAN_POINT ( 'NONE',  ( 0.000000000000000000, 0.000000000000000000, 3.000000000000000000 ) ) ;
#1102 = AXIS2_PLACEMENT_3D ( 'NONE', #868, #804, #434 ) ;
#1103 = DIRECTION ( 'NONE',  ( 0.000000000000000000, 1.000000000000000000, 0.000000000000000000 ) ) ;
#1104 = PLANE ( 'NONE',  #944 ) ;
#1105 = DIRECTION ( 'NONE',  ( 0.000000000000000000, 0.000000000000000000, -1.000000000000000000 ) ) ;
#1106 = CARTESIAN_POINT ( 'NONE',  ( 15.50000000000000711, 43.00000000000000000, 5.000000000000000000 ) ) ;
#1107 = ORIENTED_EDGE ( 'NONE', *, *, #742, .T. ) ;
#1108 = EDGE_CURVE ( 'NONE', #1092, #757, #161, .T. ) ;
#1109 = DIRECTION ( 'NONE',  ( -1.000000000000000000, -1.156482317317871478E-16, 0.000000000000000000 ) ) ;
#1110 = ORIENTED_EDGE ( 'NONE', *, *, #515, .F. ) ;
#1111 = DIRECTION ( 'NONE',  ( 1.000000000000000000, 0.000000000000000000, 0.000000000000000000 ) ) ;
#1112 = LINE ( 'NONE', #108, #751 ) ;
#1113 = CARTESIAN_POINT ( 'NONE',  ( 5.999999999999994671, 13.50000000000001066, 3.000000000000000000 ) ) ;
#1114 = CYLINDRICAL_SURFACE ( 'NONE', #113, 2.499999999999998668 ) ;
#1115 = AXIS2_PLACEMENT_3D ( 'NONE', #88, #456, #806 ) ;
#1116 =( BOUNDED_CURVE ( )  B_SPLINE_CURVE ( 3, ( #863, #331, #688, #601 ),
 .UNSPECIFIED., .F., .T. ) 
 B_SPLINE_CURVE_WITH_KNOTS ( ( 4, 4 ),
 ( 1.570796326794896558, 3.141592653589793116 ),
 .UNSPECIFIED. ) 
 CURVE ( )  GEOMETRIC_REPRESENTATION_ITEM ( )  RATIONAL_B_SPLINE_CURVE ( ( 1.000000000000000000, 0.8047378541243649375, 0.8047378541243649375, 1.000000000000000000 ) ) 
 REPRESENTATION_ITEM ( '' )  );
#1117 = AXIS2_PLACEMENT_3D ( 'NONE', #321, #697, #598 ) ;
#1118 = CARTESIAN_POINT ( 'NONE',  ( 32.50000000000000711, 45.00000000000000000, 3.000000000000000000 ) ) ;
#1119 = CARTESIAN_POINT ( 'NONE',  ( 43.00000000000000000, 32.50000000000000000, 3.000000000000000000 ) ) ;
#1120 = ORIENTED_EDGE ( 'NONE', *, *, #324, .F. ) ;
#1121 = FACE_OUTER_BOUND ( 'NONE', #666, .T. ) ;
#1122 = ORIENTED_EDGE ( 'NONE', *, *, #291, .T. ) ;
#1123 = ADVANCED_FACE ( 'NONE', ( #70 ), #1083, .F. ) ;
#1124 = ADVANCED_FACE ( 'NONE', ( #786 ), #519, .F. ) ;
#1125 = DIRECTION ( 'NONE',  ( -0.000000000000000000, -1.000000000000000000, -0.000000000000000000 ) ) ;
#1126 = DIRECTION ( 'NONE',  ( -0.000000000000000000, -0.000000000000000000, 1.000000000000000000 ) ) ;
#1127 = CARTESIAN_POINT ( 'NONE',  ( 5.999999999999994671, 13.50000000000001066, 5.000000000000000000 ) ) ;
#1128 = DIRECTION ( 'NONE',  ( -1.000000000000000000, 0.000000000000000000, 0.000000000000000000 ) ) ;
#1129 = ADVANCED_FACE ( 'NONE', ( #781 ), #449, .F. ) ;
#1130 = DIRECTION ( 'NONE',  ( -0.000000000000000000, -0.000000000000000000, -1.000000000000000000 ) ) ;
#1131 = ORIENTED_EDGE ( 'NONE', *, *, #1134, .F. ) ;
#1132 = DIRECTION ( 'NONE',  ( 1.000000000000000000, -0.000000000000000000, -0.000000000000000000 ) ) ;
#1133 = CIRCLE ( 'NONE', #320, 2.000000000000001776 ) ;
#1134 = EDGE_CURVE ( 'NONE', #982, #371, #341, .T. ) ;
#1135 = VECTOR ( 'NONE', #64, 1000.000000000000000 ) ;
#1136 = DIRECTION ( 'NONE',  ( 0.000000000000000000, 0.000000000000000000, 1.000000000000000000 ) ) ;
#1137 = EDGE_LOOP ( 'NONE', ( #8, #332, #508, #100 ) ) ;
#1138 = UNCERTAINTY_MEASURE_WITH_UNIT (LENGTH_MEASURE( 1.000000000000000082E-05 ), #516, 'distance_accuracy_value', 'NONE');
#1139 = DIRECTION ( 'NONE',  ( 0.000000000000000000, 0.000000000000000000, -1.000000000000000000 ) ) ;
#1140 = ORIENTED_EDGE ( 'NONE', *, *, #1108, .T. ) ;
#1141 = FACE_OUTER_BOUND ( 'NONE', #772, .T. ) ;
#1142 = EDGE_LOOP ( 'NONE', ( #711, #528, #197, #187 ) ) ;
#1143 = CARTESIAN_POINT ( 'NONE',  ( 15.50000000000000711, 43.00000000000000000, 8.000000000000000000 ) ) ;
#1144 = ORIENTED_EDGE ( 'NONE', *, *, #635, .F. ) ;
#1145 = DIRECTION ( 'NONE',  ( -1.000000000000000000, -0.000000000000000000, -0.000000000000000000 ) ) ;
#1146 = DIRECTION ( 'NONE',  ( -0.000000000000000000, 1.000000000000000000, -0.000000000000000000 ) ) ;
#1147 = ORIENTED_EDGE ( 'NONE', *, *, #708, .F. ) ;
#1148 = EDGE_CURVE ( 'NONE', #590, #1164, #991, .T. ) ;
#1149 = LINE ( 'NONE', #970, #76 ) ;
#1150 = DIRECTION ( 'NONE',  ( 0.000000000000000000, 0.000000000000000000, -1.000000000000000000 ) ) ;
#1151 = VERTEX_POINT ( 'NONE', #87 ) ;
#1152 = ORIENTED_EDGE ( 'NONE', *, *, #1050, .F. ) ;
#1153 = ORIENTED_EDGE ( 'NONE', *, *, #335, .T. ) ;
#1154 = VECTOR ( 'NONE', #104, 1000.000000000000000 ) ;
#1155 = CARTESIAN_POINT ( 'NONE',  ( 0.000000000000000000, 41.00000000000000000, 3.000000000000000000 ) ) ;
#1156 = VECTOR ( 'NONE', #3, 1000.000000000000000 ) ;
#1157 = VERTEX_POINT ( 'NONE', #166 ) ;
#1158 = DIRECTION ( 'NONE',  ( -1.156482317317871478E-16, 1.000000000000000000, 0.000000000000000000 ) ) ;
#1159 = ORIENTED_EDGE ( 'NONE', *, *, #867, .F. ) ;
#1160 = VECTOR ( 'NONE', #206, 1000.000000000000000 ) ;
#1161 = ADVANCED_FACE ( 'NONE', ( #882 ), #793, .F. ) ;
#1162 = CARTESIAN_POINT ( 'NONE',  ( 5.999999999999992895, 32.50000000000000711, 5.000000000000000000 ) ) ;
#1163 = CARTESIAN_POINT ( 'NONE',  ( 5.000000000000000000, 5.000000000000000000, 3.000000000000000000 ) ) ;
#1164 = VERTEX_POINT ( 'NONE', #263 ) ;
#1165 = ORIENTED_EDGE ( 'NONE', *, *, #1008, .F. ) ;
#1166 = PLANE ( 'NONE',  #440 ) ;
#1167 = ORIENTED_EDGE ( 'NONE', *, *, #550, .F. ) ;
#1168 = ORIENTED_EDGE ( 'NONE', *, *, #622, .T. ) ;
#1169 = DIRECTION ( 'NONE',  ( -0.000000000000000000, -1.000000000000000000, -0.000000000000000000 ) ) ;
#1170 = ADVANCED_FACE ( 'NONE', ( #181 ), #4, .F. ) ;
ENDSEC;
END-ISO-10303-21;
